<?xml version="1.0" encoding="utf-8"?>
<!-- Generator: Adobe Illustrator 26.5.0, SVG Export Plug-In . SVG Version: 6.00 Build 0)  -->
<svg version="1.1" id="Layer_1" xmlns="http://www.w3.org/2000/svg" xmlns:xlink="http://www.w3.org/1999/xlink" x="0px" y="0px"
	 viewBox="0 0 1920 1080" style="enable-background:new 0 0 1920 1080;" xml:space="preserve">
<style type="text/css">
	.st0{fill:#318FE4;}
</style>
<path class="st0" d="M1219.24,511.69c-53.08,0.39-106.18-0.57-159.23,0.55c-19.14,0.4-24.46-6.12-24.15-24.72
	c0.98-58.11,0.07-116.25,0.27-174.38c0.06-18.09-5.22-31.81-25.18-34.44c-18.75-2.47-29.04,9.44-29.21,34.77
	c-0.4,58.97-0.69,117.95,0.1,176.91c0.22,16.68-5.43,21.88-21.81,21.64c-54.76-0.79-109.53,0.11-164.29-0.59
	c-19.94-0.26-33.68,5.96-34.39,27.29c-0.74,22.22,11.35,30.32,33.64,29.83c53.06-1.18,106.19,0.78,159.22-0.94
	c23.22-0.75,29,7.62,27.79,29.01c-1.56,27.71-0.38,55.58-0.38,83.38c0.03,0,0.06,0,0.09,0c0,28.64,0.59,57.3-0.2,85.92
	c-0.56,20.24,4.46,37.21,27.34,37.01c22.4-0.2,27.79-16.79,27.56-37.16c-0.64-56.44,0.68-112.91-0.66-169.32
	c-0.51-21.44,4.57-29.59,27.73-28.84c52.18,1.69,104.46,0.05,156.7,0.47c20.35,0.17,35.02-4.03,34.8-28.64
	C1254.75,514.43,1238.98,511.55,1219.24,511.69z"/>
</svg>
