<?xml version="1.0" encoding="utf-8"?>
<!-- Generator: Adobe Illustrator 26.5.0, SVG Export Plug-In . SVG Version: 6.00 Build 0)  -->
<svg version="1.1" id="Layer_1" xmlns="http://www.w3.org/2000/svg" xmlns:xlink="http://www.w3.org/1999/xlink" x="0px" y="0px"
	 viewBox="0 0 1920 1080" style="enable-background:new 0 0 1920 1080;" xml:space="preserve">
<style type="text/css">
	.st0{fill:#4A97DE;}
</style>
<g>
	<g>
		<path class="st0" d="M1004.01,1043.5c-2.89,0-5.8-0.68-8.46-2.05L565.54,820.46c-6.17-3.17-10.04-9.52-10.04-16.45V134.92
			c0-6.37,3.28-12.3,8.68-15.68c5.4-3.38,12.17-3.74,17.9-0.96l430.01,208.89c6.37,3.1,10.42,9.56,10.42,16.64V1025
			c0,6.45-3.36,12.43-8.86,15.79C1010.7,1042.59,1007.36,1043.5,1004.01,1043.5z M592.5,792.72l393.01,201.98V355.38L592.5,164.47
			V792.72z"/>
	</g>
	<g>
		<path class="st0" d="M1006.33,1043.5c-3.33,0-6.66-0.9-9.6-2.69c-5.52-3.35-8.9-9.35-8.9-15.81V343.8
			c0-7.06,4.01-13.5,10.35-16.61l425.39-208.89c5.73-2.81,12.52-2.47,17.94,0.9c5.42,3.38,8.72,9.31,8.72,15.7v669.09
			c0,6.9-3.84,13.23-9.97,16.42l-425.39,220.99C1012.18,1042.81,1009.25,1043.5,1006.33,1043.5z M1024.83,355.33v639.21
			l388.39-201.77V164.61L1024.83,355.33z"/>
	</g>
</g>
<g>
	<path class="st0" d="M1006.33,247.25c-2.87,0-5.74-0.67-8.37-2L653.48,70.5c-9.11-4.62-12.75-15.76-8.13-24.87
		c4.62-9.11,15.76-12.75,24.87-8.13l336.22,170.56l345.69-170.65c9.16-4.52,20.25-0.76,24.78,8.4c4.52,9.16,0.76,20.26-8.4,24.78
		l-353.99,174.75C1011.93,246.62,1009.13,247.25,1006.33,247.25z"/>
</g>
</svg>
