<?xml version="1.0" encoding="utf-8"?>
<!-- Generator: Adobe Illustrator 26.5.0, SVG Export Plug-In . SVG Version: 6.00 Build 0)  -->
<svg version="1.1" id="Layer_1" xmlns="http://www.w3.org/2000/svg" xmlns:xlink="http://www.w3.org/1999/xlink" x="0px" y="0px"
	 viewBox="0 0 1920 1080" style="enable-background:new 0 0 1920 1080;" xml:space="preserve">
<style type="text/css">
	.st0{fill:#4998D8;}
</style>
<g>
	<path class="st0" d="M1468.2,249.62c-16.25-12.99-28.47-31.36-46.08-42.54c-0.48-0.43-0.95-0.9-1.39-1.46
		c-9.85-12.25-22-21.78-33.32-31.89c29.2,57.87,31.81,72.52,27.42,101.53c-13.38-4.04-22.55-19.48-40.69-15.19
		c22.63,53.89,25.2,108.95,19.87,168.97c-15.24-15.89-19.58-38.15-42.79-40.61c7.15,39.23-2.55,78.9-28.92,114.39
		c-2.56-31.11-11.61-53.92-46.01-56.25c-13.04-0.88-4.04-12.03-2.29-18.57c15.24-56.89-3.97-106.49-53.78-133.97
		c-14.06-7.76-25.87-16.52-36.49-28.69c-16.59-19-36.31-33.39-66.5-22.4c18.59,9.97,39.47,20.8,38.86,37.06
		c-0.56,14.9,4.83,14.33,12.97,17.11c44.27,15.16,51.28,35.76,24.86,74.26c-2.84,4.13-6.96,7.69-3.74,12.53
		c3.61,5.44,8.46,1.93,12.93,0.12c9.93-4.03,17.18-13.68,30.1-13.95c5.89,26.42-3.64,43.6-26.57,58.32
		c-19.86,12.75-42.85,13.4-65.81,23.01c27.04,11.43,50.83-5.06,78.07-2.48c-14.02,29.08-36.06,42.14-63.95,45.11
		c-21.58,2.29-43.47,1.66-65.23,2.33c-2.53,2.88-5.06,5.75-7.6,8.63c20.91,8.11,43.57,6.96,69.87,10.84
		c-28.34,22.06-55.68,18.44-82.67,12.82c-27.96-5.82-53.03-21.61-82.63-23.11c-15.07-0.77-14.81-13.76-11.34-25.08
		c9.72-31.75,21.59-61.2,56.87-74.6c14.35-5.45,27.1-16.43,39.04-26.69c31.22-26.83,34.19-57.11,9.26-96.39
		c-1.37,19.55-1.19,37.68-8.61,53.94c-3.74,8.19-9.49,22.28-21.16,11.87c-21.52-19.21-36.71-9.34-53.6,5.91
		c-7.99,7.22-18.46,11.75-30.24,9.37c-12.81,2.99-24.05-2.1-32.86-9.79c-17.07-14.89-32.32-24.53-53.61-5.51
		c-12.04,10.75-16.39-4.6-20.94-11.82c-10.38-16.46-3.69-36.33-8.48-57.24c-4.69,6.21-7.47,9.88-10.25,13.55
		c-2.18,15.45-4.36,30.91-6.54,46.36c0.36,2.15,0.73,4.3,1.09,6.45c9.2,24.26,30.3,37.71,48.72,53.59
		c15.41,5.53,29.94,12.52,41.49,24.56c23.59,14.92,24.11,41.28,31.23,64.15c2.54,8.17-1.24,17.1-10.98,17.4
		c-32.38,0.99-59.84,19.47-90.79,24.51c-24.59,4-50.08,7.24-74.65-14.83c30.79-3.68,58.44-2.71,83.93-16.43
		c-9.39-6.95-19.35-2.27-28.17-4.64c-26.05,2.27-52.14,5.12-77.33-5.21c-19.45-1.64-31.27-14.75-41.03-29.28
		c-10.77-16.03,4.81-10.75,11.4-12.46c0.07-4.08,0.15-8.16,0.22-12.24c-24.09-15.05-38.86-34.45-31.09-67.05
		c19.26,9.79,37.01,18.81,54.75,27.82c1.94-0.39,3.87-0.78,5.81-1.17l-1.54-11.64c-23.01-9.12-40.59-23.84-34.59-50.7
		c7.48-33.48,36.65-36.39,64.42-39.3c-12.72-6.23-21.54-13.03-5.91-26.04c8.77-7.3,16.71-15.6,25.88-24.26
		c-16.02-6.48-28.51-2.61-40.75,3.52c-20.64,20.65-40.84,40.85-66.84,56.2c-36.04,21.28-49.94,57.43-47.62,99.01
		c1.27,22.77,4.27,43.7-24.42,55.13c-16.65,6.63-15.75,28.12-19.44,49.08c-25.75-37.85-32.84-76.27-29.33-122.59
		c-20.46,12.88-28.85,28.91-40.18,50.11c-9.15-63.72-2.25-119.19,18.88-175.03c-18.2-0.62-28.85,13.23-43.82,18.01
		c-1.9-28.81,8.35-53.92,16.12-79.4c-5.35,1.64-10.95,2.8-16.04,5.43c0.46-0.33,0.9-0.69,1.36-1.02
		c-25.49,9.2-39.77,32.81-60.19,48.52c-66,78.49-79.88,172.21-83.91,273.02c17.8-10.11,22.88-27.17,41.08-33.43
		c-5.03,79.85,2.29,155.14,28.4,233.58c13.03-23.55,23.32-42.17,36.98-66.87c14.64,71.42,28.76,136.52,71.28,193.5
		c13.5-31.36,30.15-57.51,57.43-75.1c7.06,10.09-1.02,17.48-2.49,34.24c38.86-30.42,76.36-49.2,120.75-30.47
		c13.38-2.33,22.1,1.18,21.11,16.85c3.2,4.05,6.4,8.1,9.59,12.14c6.16,0.78,14.27-3.12,16.68,6.23c0.26,1.01-5.71,3.64-8.79,5.51
		c17.03,37.89,30.17,77.2,43.01,116.64c10.74,33.01,31.67,57.69,65.12,76.56c-4.64-16.84-8.31-30.17-11.97-43.49
		c36.47,31.72,61.39,75.39,112.17,86.45c0.01-10.82,0.02-21.65,0.03-32.47c-1.08-0.07-2.21-0.3-3.42-0.75
		c-48.01-18.08-96.8-53.22-125.07-97.45c-0.43-0.46-0.85-0.94-1.22-1.44c-1.8-2.44-3.37-4.96-4.83-7.56
		c-5.33-3.89-10.1-8.78-14.07-13.41c-11.88-13.86-21.74-29.56-30.39-45.61c-11.93-22.14-21.51-45.8-28.97-69.8
		c-1.43-4.59-2.83-9.21-4.18-13.87c-19.84-24.87-54.41-25.68-84.54-23.38c-23.08,1.76-45.86,7.75-66.91-1.99
		c-0.91,0.18-1.89,0.26-2.96,0.21c-22.53-1.11-40.08,26.33-52.45,41.85c-4.44,5.57-14.95,3.81-17.96-2.31
		c-9.49-19.29-13.98-40.01-18.06-60.97c-4.34-22.31-10.19-44.01-16.26-65.9c-2.83-10.2-6.3-20.19-9.17-30.37
		c-0.91-3.23-1.74-6.52-2.85-9.69c-0.27-0.77-0.98-2.52-1.61-4.1c-1.15,1.26-3.32,2.84-4.03,3.6c-3.46,3.7-6.48,7.71-9.24,11.95
		c-5.64,8.69-10.18,18.01-13.94,27.64c-4.7,12.03-21.47,10.19-22.46-3.04c-2.76-36.88-2.69-73.26-8.02-109.96
		c-4.08-28.09-6.26-56.02-7.87-84.2c-4.57,3.84-8.52,8.35-11.23,13.48c-6.93,13.13-26.12,1.57-19.75-11.54
		c12.11-24.91,11.47-53.57,17.39-80.15c5.94-26.68,19.52-52.45,31.59-76.81c12.43-25.08,26.38-49.49,43.08-71.99
		c6.75-9.09,14.42-18.1,23.1-25.86c-15.05,34.61-33.42,67.94-40.59,105.61c-3.31,17.41-6.81,34.79-10.87,55.48
		c22.96-7.15,33.63-27.9,55.87-33.11c-10.59,62.15-10.34,123.45,3.63,188.61c19.49-15.87,24.78-40.67,47.69-52.12
		c9.02,56.11,29.24,105.58,63.09,156c1.44-20.26,2.06-35.31,3.69-50.25c1.89-17.31,6.81-34.52,25.07-40.36
		c18-5.76,35.37-2.29,46.85,15.38c18.87,12.84,22.13,33.21,25.77,53.39c1.02,18.85,6.05,36.11,19.76,49.94
		c0.02,4.97,0.04,9.95,0.06,14.92c-0.06,2.11-0.12,4.23-0.18,6.34l1.29,19.12c36.42-17.13,38.68-15.65,49.23,26.81
		c4.58,18.42,6.22,37.06,5.48,55.76c-1.79,45.58,19.36,79.16,53.4,106.59c7.2,5.8,12.99,12.02,21.5,0.64
		c23.31-31.14,56.69-31.74,91.07-28.27c35.04-5.84,65.37,3.74,89.79,29.34c8.23,8.63,13.12,4.79,19.63-0.85
		c30.95-26.78,54.79-56.9,53.77-101.05c-0.53-22.73,0.78-45.55,7.43-67.72c11-36.68,13.27-37.99,48.57-21.26
		c0-11.59-0.8-21.92,0.24-32.05c0.92-8.89-6.65-22.12,13.25-22.7c9.77-0.29,4.3-13.31,4.31-20.28c0.06-28.16,8.14-52.85,29.29-72.07
		c28.84-26.19,58.06-17.25,69.3,20.12c4.99,16.59,2.26,33.45,4.18,50.23c25.44-19.7,46.78-68.25,63.76-145.91
		c23.14,8.73,29.02,32.92,47.07,52.58c14.24-65.39,15.69-126.34,4.28-189.4c21.64,4.02,32.72,20.76,48.59,29.78
		c5.02-26.25,0.82-47.57-14.97-93.24c-6.46-18.7-15.34-36.28-25.25-55.52c4.32,4.94,8.35,10.12,12.07,15.33
		c16.07,22.5,29.49,46.91,41.45,71.99c11.62,24.36,24.68,50.13,30.4,76.81c5.69,26.58,5.08,55.24,16.73,80.15
		c6.13,13.11-12.33,24.67-19,11.54c-2.61-5.13-6.41-9.64-10.8-13.48c-1.55,28.18-3.65,56.11-7.57,84.2
		c-5.13,36.71-5.06,73.09-7.72,109.96c-0.95,13.23-17.09,15.07-21.61,3.04c-3.62-9.63-7.99-18.95-13.42-27.64
		c-2.65-4.24-5.56-8.25-8.89-11.95c-0.68-0.76-2.77-2.34-3.88-3.6c-0.6,1.57-1.29,3.32-1.55,4.1c-1.07,3.17-1.86,6.46-2.74,9.69
		c-2.76,10.18-6.1,20.17-8.82,30.37c-5.84,21.89-11.47,43.59-15.64,65.9c-3.92,20.97-8.24,41.69-17.37,60.97
		c-2.9,6.12-13.01,7.88-17.28,2.31c-11.9-15.52-28.79-42.96-50.47-41.85c-1.03,0.05-1.97-0.03-2.85-0.21
		c-20.26,9.73-42.17,3.75-64.38,1.99c-28.99-2.3-62.25-1.49-81.35,23.38c-1.3,4.66-2.65,9.29-4.02,13.87
		c-7.18,24-16.4,47.66-27.88,69.8c-8.32,16.04-17.8,31.75-29.24,45.61c-3.82,4.64-8.41,9.52-13.54,13.41
		c-1.4,2.59-2.91,5.12-4.64,7.56c-0.36,0.5-0.76,0.98-1.17,1.44c-27.21,44.22-74.15,79.37-120.34,97.45
		c-1.16,0.45-2.25,0.69-3.29,0.75c0.01,10.82,0.02,21.65,0.02,32.47c48.87-11.06,72.84-54.73,107.93-86.45
		c-3.53,13.33-7.06,26.65-11.52,43.49c32.18-18.86,52.32-43.55,62.66-76.56c12.35-39.45,25-78.75,41.38-116.64
		c-2.96-1.88-8.7-4.5-8.45-5.51c2.32-9.34,10.13-5.45,16.05-6.23c3.08-4.05,6.15-8.1,9.23-12.14c-0.96-15.67,7.43-19.18,20.31-16.85
		c42.71-18.73,78.8,0.05,116.18,30.47c-1.41-16.76-9.19-24.15-2.39-34.24c26.25,17.59,42.27,43.75,55.26,75.1
		c40.91-56.98,54.49-122.09,68.58-193.5c13.14,24.7,23.05,43.31,35.58,66.87c25.12-78.44,32.17-153.73,27.32-233.58
		c17.52,6.26,22.4,23.32,39.53,33.43C1545.06,421.83,1531.71,328.11,1468.2,249.62z M853.47,577.1
		c-6.48,36.71-9.56,73.52-5.85,116.8c-36.33-36.93-50.41-75.95-51.47-120.65c-0.51-21.48,14.51-20.7,28.36-19.48
		C838.68,555.02,857.49,554.32,853.47,577.1z M893.57,840.22c-11.37,4.78-24.71,11.12-30.95-7.87
		c-11.73-35.71-12.08-70.64,7.11-107.82c10.4,32.56,20.54,62.13,36.35,89.17C915.23,829.32,904.54,835.61,893.57,840.22z
		 M899.2,589.98c-7-46.63-7.01-46.7,32.41-50.51c13.68-1.32,27.43-3.36,40.9,1.56c7.77-0.79,15.57-2.5,23.3-2.22
		c40.35,1.46,41.56,3.08,38.11,52.64c-14.83-29.14-40.79-21.34-61.15-29.2c-11.43-0.77-21.15,5.84-34.49,2.64
		C923.45,561.32,909.56,574.54,899.2,589.98z M995.83,823.53c-9.65-0.34-19.29-0.9-28.93-1.36c-9.77,0.41-19.54,1-29.32,1.17
		c-8.48,0.15-19.77,2.37-15.87-12.31c2.22-8.35-0.05-25.79,18.23-14.02c8.8,5.67,19.42-10.51,27.22,2.7
		c9.5-11.59,23.81,2.64,34.81-5.97c1.27-0.99,7.14,11.94,7.38,20C1009.67,824.13,1002.77,823.78,995.83,823.53z M1068.01,833.51
		c-6.51,20.11-21.71,9.38-32.12,6.26c-12.67-3.8-18.24-13.06-10.13-27.61c14.69-26.34,26.82-53.97,34.47-89.1
		C1080.51,762.74,1079.54,797.89,1068.01,833.51z M1134.66,578.33c-2.33,41.91-16.03,77.95-50.71,114.8
		c4.55-43.21,1.19-77.76-5.65-111.75c-4.97-24.71,11.69-26.31,27.2-28.08C1122.79,551.32,1135.98,554.55,1134.66,578.33z"/>
	<path class="st0" d="M1188.55,211.45c-43.86-23.51-80.43-28.31-117.28,3.35c15.57-80.95,62.71-126.92,143.98-143.49
		c37.58-7.66,37.58-7.66,27.67-43.98c25.91,10.34,39.77,26.85,38.79,53.28c-0.89,24.19,3.44,46.21,12.09,68.63
		c10.65,27.61,7.53,55.44-7.54,90.74c-5.99-37.3-13.14-65.24-33.9-87.44c-9.03-9.65-15.34-17.99-24.97,0.34
		c-6.84,13.02-18.72,23.98-33.32,28.14C1176.49,186.03,1170.66,192.91,1188.55,211.45z M1147.82,125.14
		c-12.16,10.63-26.63,19.43-24.18,31.01c2.6,12.32,20.13,11.62,32.09,14.68c10.98,2.81,21.61,2.29,31.9-1.92
		c21.1-8.65,35.96-48.66,21.99-68.48c-14.86-21.09-27.66,4.45-41.82,6.92c-2.68,0.47-5,2.96-7.52,4.54
		c8.56,9.99,27.94,11.46,24.5,29.84c-1.16,6.19-7.32,11.58-15.51,11.49C1152.98,153.07,1150.6,139.91,1147.82,125.14z"/>
	<path class="st0" d="M859,210.33c-34.33-25.19-70.19-19.84-106.5-5.3c-0.29-10.69,1.39-21.18-14.42-24.18
		c-12.72-2.41-24.74-11.37-30.21-22.57c-12.73-26.04-22.42-14.08-33.9,0.12c-15.13,18.72-21.22,41.48-30.21,64.03
		c-17.68-29.19-13.76-58.99-1.09-87.41c6.73-15.1,9.58-28.88,8.06-45.24c-2.52-27.15,6.03-50.1,31.46-64.21
		c8.22,5.55,3.17,11.07,1.43,15.85c-6.7,18.37-2.23,25.66,18.91,27.74c27.37,2.69,53.99,11.32,78.75,24.45
		c15.57,8.25,25.15,19.58,22.95,38.32c-1.86,2.13-3.8,4.2-5.74,6.27c-11.9-15.52-16.73-10.49-20.82,5.83
		c-2.16,8.63-11.69,9.68-20.09,8.09c-6.32-1.2-10.59-5.17-12.8-11.18c-3.59-9.78,5.38-9.92,9.76-14.45
		c4.78-4.93,9.8-9.58,18.03-15.29c-18.98-3.84-30.53-30-50.27-12.8c-14.02,12.22-7.7,48.71,8.35,62.59
		c22.14,19.15,46.48,11.83,69.86,2.71c20.72-8.08-1.12-21.77,3.12-32.29c24.08-2.27,30.69,16.72,38.83,32.85
		C849.82,178.82,858.77,193.09,859,210.33z"/>
</g>
</svg>
