<?xml version="1.0" encoding="utf-8"?>
<!-- Generator: Adobe Illustrator 26.5.0, SVG Export Plug-In . SVG Version: 6.00 Build 0)  -->
<svg version="1.1" id="Layer_1" xmlns="http://www.w3.org/2000/svg" xmlns:xlink="http://www.w3.org/1999/xlink" x="0px" y="0px"
	 viewBox="0 0 1920 1080" style="enable-background:new 0 0 1920 1080;" xml:space="preserve">
<style type="text/css">
	.st0{fill:#358FE9;}
</style>
<path class="st0" d="M1436.93,514.04c-2.87-2.81-5.95-5.28-9.18-7.44l-389.47-381.26c-25.01-24.48-65.13-24.06-89.61,0.96
	c-24.48,25.01-24.05,65.13,0.96,89.61l286.07,280.04H705.34c-35,0-63.37,28.37-63.37,63.37c0,35,28.37,63.37,63.37,63.37h536.55
	L958.62,912.07c-24.48,25.01-24.05,65.13,0.96,89.61c12.33,12.07,28.33,18.09,44.32,18.09c16.44,0,32.88-6.36,45.29-19.04
	l388.69-397.07C1462.37,578.65,1461.94,538.53,1436.93,514.04z"/>
</svg>
