<?xml version="1.0" encoding="utf-8"?>
<!-- Generator: Adobe Illustrator 26.5.0, SVG Export Plug-In . SVG Version: 6.00 Build 0)  -->
<svg version="1.1" id="Layer_1" xmlns="http://www.w3.org/2000/svg" xmlns:xlink="http://www.w3.org/1999/xlink" x="0px" y="0px"
	 viewBox="0 0 1920 1080" style="enable-background:new 0 0 1920 1080;" xml:space="preserve">
<style type="text/css">
	.st0{fill:#67A6D1;}
	.st1{fill:#FAFCFD;}
</style>
<path class="st0" d="M952.08,709.34c-128,0-256-0.57-383.99,0.44c-28.78,0.23-41.93-6.79-41.69-39.01
	c1.33-178.46,1.18-356.94,0.39-535.41c-0.12-27.31,5.92-42.8,36.69-39.43c92.64,10.14,185.57,3.03,278.35,3.23
	c169.78,0.36,339.56-1.08,509.33-2.61c20.48-0.18,25.97,9.33,25.99,26.59c0.03,25.85-0.03,51.69-0.02,77.54
	c0.05,156.32-0.18,312.63,0.47,468.95c0.1,24.82-0.57,39.24-34.3,38.57c-130.36-2.59-260.8-1.05-391.21-1.05
	C952.08,707.87,952.08,708.6,952.08,709.34z M956.03,660.36c0,0.12,0,0.24,0,0.36c114.51,0,229.02-0.58,343.52,0.45
	c25.13,0.23,34.71-7.02,34.54-33.3c-0.98-147.76-0.83-295.53-0.28-443.29c0.11-29.75-11.29-40.81-41.85-40.68
	c-226.55,0.99-453.11,1.06-679.66,0.06c-30.83-0.14-41.69,11.01-41.57,40.66c0.61,145.3,0.64,290.61-0.03,435.91
	c-0.14,30.03,11.37,40.74,41.81,40.38C727.01,659.55,841.53,660.36,956.03,660.36z"/>
<path class="st0" d="M955.56,728.67c66.29,0,132.58-0.18,198.87,0.15c14.18,0.07,32.13-2.79,31.6,19.98
	c-0.5,21.69-17.53,20.18-32.22,20.18c-131.35,0.03-262.7,0.03-394.06-0.39c-15.17-0.05-35.71,3.54-35.48-20.61
	c0.25-25.29,21.72-18.41,36.11-18.56c65.06-0.64,130.12-0.28,195.18-0.28C955.56,728.98,955.56,728.83,955.56,728.67z"/>
<path class="st1" d="M956.03,660.36c-114.51,0-229.03-0.82-343.52,0.55c-30.44,0.36-41.95-10.35-41.81-40.38
	c0.67-145.3,0.64-290.61,0.03-435.91c-0.12-29.65,10.74-40.8,41.57-40.66c226.55,1,453.11,0.92,679.66-0.06
	c30.56-0.13,41.96,10.92,41.85,40.68c-0.55,147.76-0.7,295.53,0.28,443.29c0.17,26.29-9.41,33.53-34.54,33.3
	c-114.5-1.03-229.01-0.45-343.52-0.45C956.03,660.6,956.03,660.48,956.03,660.36z"/>
</svg>
