<?xml version="1.0" encoding="utf-8"?>
<!-- Generator: Adobe Illustrator 26.5.0, SVG Export Plug-In . SVG Version: 6.00 Build 0)  -->
<svg version="1.1" id="Layer_1" xmlns="http://www.w3.org/2000/svg" xmlns:xlink="http://www.w3.org/1999/xlink" x="0px" y="0px"
	 viewBox="0 0 1920 1080" style="enable-background:new 0 0 1920 1080;" xml:space="preserve">
<style type="text/css">
	.st0{fill:#4A97DE;}
</style>
<circle class="st0" cx="1281.08" cy="579.24" r="19.52"/>
<circle class="st0" cx="1281.08" cy="719.82" r="19.52"/>
<circle class="st0" cx="1212.36" cy="647.97" r="19.52"/>
<circle class="st0" cx="1343.56" cy="647.97" r="19.52"/>
<path class="st0" d="M967.91,623.76h-68.72v-64.04c0-13.8-11.19-24.99-24.99-24.99s-24.99,11.19-24.99,24.99v64.04h-59.35
	c-13.8,0-24.99,11.19-24.99,24.99s11.19,24.99,24.99,24.99h59.35v71.85c0,13.8,11.19,24.99,24.99,24.99s24.99-11.19,24.99-24.99
	v-71.85h68.72c13.8,0,24.99-11.19,24.99-24.99S981.72,623.76,967.91,623.76z"/>
<path class="st0" d="M1322.5,409.77h-217.13V302h-51.54v107.77H832c-101.18,0-183.5,82.32-183.5,183.5v104.7
	c0,101.18,82.32,183.5,183.5,183.5h490.49c101.18,0,183.5-82.32,183.5-183.5v-104.7C1506,492.09,1423.68,409.77,1322.5,409.77z
	 M1468.51,697.97c0,80.51-65.5,146.02-146.02,146.02H832c-80.51,0-146.02-65.5-146.02-146.02v-104.7
	c0-80.51,65.5-146.02,146.02-146.02h490.49c80.51,0,146.02,65.5,146.02,146.02V697.97z"/>
</svg>
