<?xml version="1.0" encoding="utf-8"?>
<!-- Generator: Adobe Illustrator 26.5.0, SVG Export Plug-In . SVG Version: 6.00 Build 0)  -->
<svg version="1.1" id="Layer_1" xmlns="http://www.w3.org/2000/svg" xmlns:xlink="http://www.w3.org/1999/xlink" x="0px" y="0px"
	 viewBox="0 0 1920 1080" style="enable-background:new 0 0 1920 1080;" xml:space="preserve">
<style type="text/css">
	.st0{fill:#FFFFFF;}
</style>
<path class="st0" d="M831.53,1038.82c-10.09-0.15-14.74-7.3-19.79-12.92c-30.81-34.3-61.73-68.51-91.75-103.49
	c-80.12-93.35-171.47-175.46-260.75-259.56c-21.19-19.96-18.67-32.51,1.84-48.2c46.71-35.76,96.28-67.71,139.61-108.06
	c13.78-12.84,29.58-13.56,45.72,4.45c43.22,48.22,88.64,94.49,133.81,140.93c24.17,24.85,30.7,20.83,50.97-6.3
	c21.07-28.19,38.33-58.93,61.6-85.86c22.58-26.13,40.55-56.29,62.06-83.76c34.36-43.86,64.97-90.64,97.81-135.71
	c47.22-64.79,96.11-128.41,142.01-194.11c16.24-23.25,36.21-43.55,50.71-67.79c7.48-12.5,15.32-13.38,26.53-6.8
	c70.3,41.27,142.21,79.02,220.13,104.37c18.91,6.15,20.14,17.29,6.92,33.36c-36.16,43.98-77.71,82.59-119.45,120.82
	c-46.36,42.46-84.24,92.67-130.31,135.56c-110.88,103.22-198.33,225.95-287.42,347.76c-45.6,62.35-69.75,134.42-109.71,198.68
	C845.91,1022.1,842.88,1033.97,831.53,1038.82z"/>
</svg>
