<?xml version="1.0" encoding="utf-8"?>
<!-- Generator: Adobe Illustrator 26.5.0, SVG Export Plug-In . SVG Version: 6.00 Build 0)  -->
<svg version="1.1" id="Layer_1" xmlns="http://www.w3.org/2000/svg" xmlns:xlink="http://www.w3.org/1999/xlink" x="0px" y="0px"
	 viewBox="0 0 1920 1080" style="enable-background:new 0 0 1920 1080;" xml:space="preserve">
<path d="M701.89,354.64c19.79-0.97,27.98,11.18,37.36,21.11c101.1,106.44,202.54,212.61,302.73,319.88
	c19.03,20.41,30.13,23.75,51.24,1.04c100.68-108.46,203.58-214.76,304.96-322.52c18.75-19.93,33.88-29.09,57.01-5.14
	c38.12,39.51,40.62,46.38,15.14,73.18c-121.02,127.41-241.84,254.96-363.07,382.17c-36.45,38.26-41.24,38.54-76.79,1.32
	c-122.9-128.8-245.31-258.02-367.93-387.1c-8.96-9.37-19.86-20.69-11.32-33.26C665.23,384.77,680.02,363.66,701.89,354.64z"/>
</svg>
