<?xml version="1.0" encoding="utf-8"?>
<!-- Generator: Adobe Illustrator 26.5.0, SVG Export Plug-In . SVG Version: 6.00 Build 0)  -->
<svg version="1.1" id="Layer_1" xmlns="http://www.w3.org/2000/svg" xmlns:xlink="http://www.w3.org/1999/xlink" x="0px" y="0px"
	 viewBox="0 0 1920 1080" style="enable-background:new 0 0 1920 1080;" xml:space="preserve">
<path d="M1154.68,616.76c-54.14,0-101.98,26.85-131.03,67.94l-158.79-93.54c4.79-15.22,7.38-31.41,7.38-48.2
	c0-16.52-2.5-32.45-7.14-47.45l159.97-98.21c29.18,39.96,76.35,65.94,129.62,65.94c88.59,0,160.41-71.82,160.41-160.41
	c0-88.59-71.82-160.41-160.41-160.41s-160.41,71.82-160.41,160.41c0,18.01,3.01,35.3,8.48,51.46l-158.92,97.56
	c-28.95-41.86-77.26-69.31-132.01-69.31c-88.59,0-160.41,71.82-160.41,160.41s71.82,160.41,160.41,160.41
	c54.5,0,102.61-27.2,131.6-68.74l158.54,93.39c-4.98,15.49-7.7,32-7.7,49.15c0,88.59,71.82,160.41,160.41,160.41
	s160.41-71.82,160.41-160.41S1243.28,616.76,1154.68,616.76z"/>
</svg>
