<?xml version="1.0" encoding="utf-8"?>
<!-- Generator: Adobe Illustrator 26.5.0, SVG Export Plug-In . SVG Version: 6.00 Build 0)  -->
<svg version="1.1" id="Layer_1" xmlns="http://www.w3.org/2000/svg" xmlns:xlink="http://www.w3.org/1999/xlink" x="0px" y="0px"
	 viewBox="0 0 1920 1080" style="enable-background:new 0 0 1920 1080;" xml:space="preserve">
<path d="M1324.79,281.82c-0.03,35.76-10.73,66.7-36.35,93.13c-49.74,51.3-96.69,105.39-147.68,155.39
	c-27.29,26.76-24.67,44.64,0.89,70.24c52.49,52.58,103.84,106.52,152.55,162.59c63.18,72.71,26.48,185.31-64.28,202.26
	c-41.46,7.74-75.36-6.7-103.7-37.42c-48.45-52.52-98.45-103.64-146.06-156.89c-22.72-25.41-39.04-30.31-64.14-1.39
	c-45.88,52.84-95.38,102.55-143.53,153.42c-50.64,53.51-114.25,59.87-163.5,16.58c-49.75-43.72-54.65-126.34-8.11-178.05
	c47.8-53.11,96.39-105.71,147.63-155.45c29.54-28.67,34.27-48.56,1.93-79.53c-52.56-50.35-101.64-104.5-150.08-158.93
	c-59.79-67.18-31.81-174.85,50.54-199.93c46.14-14.05,84.4,0.31,116.46,34.16c51.11,53.97,102.69,107.53,152.46,162.72
	c20.31,22.52,34.07,22.71,54.59-0.16c49.62-55.31,101.84-108.28,152.45-162.7c35.08-37.72,76.63-48.23,124.58-30.79
	C1296.19,187.33,1324.28,230.88,1324.79,281.82z"/>
</svg>
