<?xml version="1.0" encoding="utf-8"?>
<!-- Generator: Adobe Illustrator 26.5.0, SVG Export Plug-In . SVG Version: 6.00 Build 0)  -->
<svg version="1.1" id="Layer_1" xmlns="http://www.w3.org/2000/svg" xmlns:xlink="http://www.w3.org/1999/xlink" x="0px" y="0px"
	 viewBox="0 0 1920 1080" style="enable-background:new 0 0 1920 1080;" xml:space="preserve">
<style type="text/css">
	.st0{fill:#414C9C;}
</style>
<path class="st0" d="M891.99,692.81c0-59.05,0.01-118.1,0-177.15c0-28.84-0.01-28.87-29.7-28.98c-20.05-0.08-40.12-0.44-60.16,0.08
	c-12.15,0.32-16.77-4.35-16.64-16.67c0.33-32.85,0.14-65.72-0.8-98.56c-0.39-13.43,4.7-17.49,17.59-16.95
	c20.58,0.87,41.22,0.31,61.83,0.3c27.76,0,27.24-0.03,27.84-27.07c0.68-31.06-2.79-62.16,4.83-93.11
	c18.19-73.85,77.3-121.07,153.58-121.15c34.54-0.04,69.1,0.72,103.61-0.31c16.51-0.49,21.49,6.27,21.41,21.52
	c-0.18,32.85,0.32,65.71,1.14,98.55c0.29,11.5-3.83,16.22-15.53,15.64c-13.89-0.69-27.85-0.29-41.77-0.23
	c-31.72,0.15-52.55,16.37-60.22,47.08c-3.97,15.92-2.07,32.16-1.38,48.23c0.47,10.73,9.31,10.87,17.38,10.87
	c28.41-0.03,56.84,0.41,85.23-0.37c12.41-0.34,16,3.26,15.65,16.11c-0.91,32.83-0.27,65.72,0.57,98.56
	c0.34,13.03-4.39,17.98-17.43,17.67c-26.17-0.62-52.4,0.62-78.53-0.56c-15.99-0.72-22.43,5.84-22.66,20.82
	c-0.12,7.79-0.61,15.58-0.62,23.38c-0.1,116.43-0.44,232.86,0.13,349.29c0.08,16.48-5.68,21.09-21.24,20.81
	c-42.33-0.76-84.68-0.69-127.01-0.08c-13.02,0.19-17.46-3.94-17.35-17.2C892.3,819.83,891.99,756.31,891.99,692.81z"/>
</svg>
