<?xml version="1.0" standalone="no"?>
<!DOCTYPE svg PUBLIC "-//W3C//DTD SVG 1.1//EN" "http://www.w3.org/Graphics/SVG/1.1/DTD/svg11.dtd" >
<svg xmlns="http://www.w3.org/2000/svg">
<metadata>Generated by IcoMoon</metadata>
<defs>
<font id="icomoon" horiz-adv-x="1024">
<font-face units-per-em="1024" ascent="960" descent="-64" />
<missing-glyph horiz-adv-x="1024" />
<glyph unicode="&#x20;" horiz-adv-x="512" d="" />
<glyph unicode="&#xe900;" glyph-name="icon-05" horiz-adv-x="1820" d="M665.496 623.749c18.764 0.92 26.529-10.6 35.423-20.015 95.858-100.921 192.038-201.586 287.033-303.294 18.043-19.352 28.568-22.519 48.583-0.986 95.46 102.836 193.024 203.624 289.147 305.797 17.778 18.897 32.123 27.582 54.054 4.873 36.143-37.461 38.514-43.975 14.355-69.385-114.745-120.804-229.3-241.74-344.244-362.354-34.56-36.276-39.102-36.542-72.808-1.252-116.527 122.121-232.59 244.641-348.852 367.028-8.495 8.884-18.83 19.617-10.733 31.535 13.284 19.484 27.307 39.5 48.043 48.052z" />
<glyph unicode="&#xe901;" glyph-name="icon-06" horiz-adv-x="1820" d="M995.679 318.711l144.943 419.423-413.070-166.533 75.378-66.304 178.868 111.019-141.862-154.197-6.172-163.451 77.103 95.602z" />
<glyph unicode="&#xe902;" glyph-name="icon-07" horiz-adv-x="1820" d="M1156.020 474.842c-50.328-0.37-100.674 0.54-150.974-0.521-18.148-0.379-23.192 5.803-22.898 23.438 0.929 55.097 0.066 110.222 0.256 165.338 0.057 17.152-4.949 30.161-23.874 32.654-17.778 2.342-27.534-8.951-27.695-32.967-0.379-55.912-0.654-111.834 0.095-167.737 0.209-15.815-5.148-20.745-20.679-20.518-51.921 0.749-103.851-0.104-155.771 0.559-18.906 0.247-31.934-5.651-32.607-25.875-0.702-21.068 10.761-28.748 31.896-28.283 50.309 1.119 100.684-0.74 150.964 0.891 22.016 0.711 27.496-7.225 26.349-27.506-1.479-26.273-0.36-52.698-0.36-79.057 0.028 0 0.057 0 0.085 0 0-27.155 0.559-54.329-0.19-81.465-0.531-19.191 4.229-35.281 25.922-35.091 21.239 0.19 26.349 15.919 26.131 35.233-0.607 53.513 0.645 107.055-0.626 160.54-0.484 20.328 4.333 28.056 26.292 27.345 49.474-1.602 99.044-0.047 148.575-0.446 19.295-0.161 33.204 3.821 32.996 27.155-0.218 23.713-15.17 26.444-33.887 26.311z" />
<glyph unicode="&#xe903;" glyph-name="icon-08" horiz-adv-x="1820" d="M529.901 457.728l402.167 446.862 97.991-97.991-304.858-348.871 330.572-328.571-100.238-100.238z" />
<glyph unicode="&#xe904;" horiz-adv-x="1820" d="M322.039 242.517l79.113-57.23v99.243z" />
<glyph unicode="&#xe905;" horiz-adv-x="1820" d="M385.65 634.785v-321.934l-63.611-70.334h1176.036v392.268z" />
<glyph unicode="&#xe906;" glyph-name="icon-10" horiz-adv-x="1820" d="M1253.623 297.481v358.874l-287.848 179.437-287.848-179.437v-358.874l287.848-179.437z" />
<glyph unicode="&#xe907;" glyph-name="icon-11" horiz-adv-x="1820" d="M1392.071 723.323c-15.407 12.316-26.994 29.734-43.691 40.334-0.455 0.408-0.901 0.853-1.318 1.384-9.339 11.615-20.859 20.651-31.592 30.236 27.686-54.869 30.161-68.76 25.998-96.265-12.686 3.831-21.381 18.47-38.58 14.402 21.457-51.096 23.893-103.301 18.84-160.209-14.45 15.066-18.565 36.172-40.571 38.504 6.779-37.196-2.418-74.809-27.42-108.459-2.427 29.497-11.008 51.124-43.624 53.333-12.364 0.834-3.831 11.406-2.171 17.607 14.45 53.94-3.764 100.968-50.991 127.023-13.331 7.358-24.529 15.663-34.598 27.202-15.73 18.015-34.427 31.659-63.052 21.239 17.626-9.453 37.423-19.721 36.845-35.138-0.531-14.127 4.58-13.587 12.297-16.223 41.975-14.374 48.621-33.906 23.571-70.409-2.693-3.916-6.599-7.291-3.546-11.88 3.423-5.158 8.021-1.83 12.26-0.114 9.415 3.821 16.289 12.971 28.539 13.227 5.585-25.050-3.451-41.339-25.192-55.296-18.83-12.089-40.628-12.705-62.398-21.817 25.638-10.837 48.194 4.798 74.022 2.351-13.293-27.572-34.19-39.955-60.634-42.771-20.461-2.171-41.216-1.574-61.848-2.209-2.399-2.731-4.798-5.452-7.206-8.183 19.826-7.689 41.311-6.599 66.247-10.278-26.871-20.916-52.793-17.484-78.383-12.155-26.51 5.518-50.28 20.489-78.345 21.912-14.289 0.73-14.042 13.047-10.752 23.78 9.216 30.104 20.471 58.027 53.921 70.732 13.606 5.167 25.695 15.578 37.016 25.306 29.601 25.439 32.417 54.149 8.78 91.392-1.299-18.536-1.128-35.726-8.164-51.143-3.546-7.765-8.998-21.125-20.063-11.255-20.404 18.214-34.807 8.856-50.821-5.604-7.576-6.846-17.503-11.141-28.672-8.884-12.146-2.835-22.803 1.991-31.156 9.282-16.185 14.118-30.644 23.258-50.83 5.224-11.416-10.193-15.54 4.361-19.854 11.207-9.842 15.607-3.499 34.446-8.040 54.272-4.447-5.888-7.083-9.368-9.719-12.847-2.067-14.649-4.134-29.307-6.201-43.956 0.341-2.039 0.692-4.077 1.033-6.116 8.723-23.002 28.729-35.755 46.194-50.811 14.611-5.243 28.388-11.871 39.339-23.287 22.367-14.146 22.86-39.14 29.611-60.824 2.408-7.746-1.176-16.213-10.411-16.498-30.701-0.939-56.737-18.46-86.082-23.239-23.315-3.793-47.483-6.865-70.779 14.061 29.193 3.489 55.41 2.569 79.578 15.578-8.903 6.59-18.347 2.152-26.709 4.399-24.699-2.152-49.436-4.855-73.32 4.94-18.441 1.555-29.649 13.985-38.903 27.762-10.212 15.199 4.561 10.193 10.809 11.814 0.066 3.868 0.142 7.737 0.209 11.605-22.841 14.27-36.845 32.664-29.478 63.573 18.261-9.282 35.091-17.835 51.911-26.377 1.839 0.37 3.669 0.74 5.509 1.109l-1.46 11.036c-21.817 8.647-38.485 22.604-32.796 48.071 7.092 31.744 34.75 34.503 61.080 37.262-12.060 5.907-20.423 12.354-5.604 24.69 8.315 6.921 15.844 14.791 24.538 23.002-15.189 6.144-27.032 2.475-38.637-3.337-19.57-19.579-38.722-38.732-63.374-53.286-34.171-20.177-47.351-54.452-45.151-93.876 1.204-21.589 4.049-41.434-23.154-52.271-15.787-6.286-14.933-26.662-18.432-46.535-24.415 35.887-31.137 72.315-27.809 116.233-19.399-12.212-27.354-27.411-38.097-47.512-8.676 60.416-2.133 113.010 17.901 165.954-17.256 0.588-27.354-12.544-41.548-17.076-1.801 27.316 7.917 51.124 15.284 75.283-5.073-1.555-10.382-2.655-15.208-5.148 0.436 0.313 0.853 0.654 1.289 0.967-24.168-8.723-37.708-31.109-57.069-46.004-62.578-74.42-75.738-163.281-79.559-258.863 16.877 9.586 21.694 25.761 38.95 31.697-4.769-75.71 2.171-147.096 26.927-221.468 12.354 22.329 22.111 39.983 35.063 63.403 13.881-67.717 27.269-129.441 67.584-183.467 12.8 29.734 28.587 54.528 54.452 71.206 6.694-9.567-0.967-16.574-2.361-32.465 36.845 28.843 72.401 46.649 114.489 28.89 12.686 2.209 20.954-1.119 20.015-15.976 3.034-3.84 6.068-7.68 9.093-11.511 5.841-0.74 13.53 2.958 15.815-5.907 0.247-0.958-5.414-3.451-8.334-5.224 16.147-35.925 28.606-73.197 40.78-110.592 10.183-31.298 30.028-54.699 61.743-72.59-4.399 15.967-7.879 28.606-11.349 41.235 34.579-30.075 58.207-71.481 106.354-81.967 0.009 10.259 0.019 20.527 0.028 30.786-1.024 0.066-2.095 0.284-3.243 0.711-45.521 17.143-91.781 50.46-118.585 92.397-0.408 0.436-0.806 0.891-1.157 1.365-1.707 2.313-3.195 4.703-4.58 7.168-5.054 3.688-9.576 8.325-13.34 12.715-11.264 13.141-20.613 28.027-28.814 43.245-11.311 20.992-20.395 43.425-27.468 66.181-1.356 4.352-2.683 8.732-3.963 13.151-18.811 23.58-51.589 24.348-80.156 22.168-21.883-1.669-43.482-7.348-63.441 1.887-0.863-0.171-1.792-0.247-2.807-0.199-21.362 1.052-38.002-24.965-49.73-39.68-4.21-5.281-14.175-3.612-17.029 2.19-8.998 18.29-13.255 37.935-17.124 57.809-4.115 21.153-9.662 41.728-15.417 62.483-2.683 9.671-5.973 19.143-8.695 28.795-0.863 3.063-1.65 6.182-2.702 9.188-0.256 0.73-0.929 2.389-1.527 3.887-1.090-1.195-3.148-2.693-3.821-3.413-3.281-3.508-6.144-7.31-8.761-11.33-5.348-8.239-9.652-17.076-13.217-26.207-4.456-11.406-20.357-9.662-21.295 2.882-2.617 34.968-2.551 69.461-7.604 104.258-3.868 26.633-5.935 53.115-7.462 79.834-4.333-3.641-8.078-7.917-10.648-12.781-6.571-12.449-24.766-1.489-18.726 10.942 11.482 23.618 10.875 50.792 16.488 75.994 5.632 25.297 18.508 49.73 29.952 72.827 11.785 23.78 25.012 46.924 40.846 68.257 6.4 8.619 13.672 17.161 21.902 24.519-14.27-32.815-31.687-64.417-38.485-100.134-3.138-16.507-6.457-32.986-10.306-52.603 21.769 6.779 31.886 26.453 52.973 31.393-10.041-58.927-9.804-117.049 3.442-178.83 18.479 15.047 23.495 38.561 45.217 49.417 8.552-53.201 27.724-100.105 59.819-147.911 1.365 19.209 1.953 33.479 3.499 47.644 1.792 16.412 6.457 32.73 23.77 38.267 17.067 5.461 33.536 2.171 44.421-14.583 17.892-12.174 20.983-31.488 24.434-50.622 0.967-17.873 5.736-34.238 18.735-47.351 0.019-4.712 0.038-9.434 0.057-14.146-0.057-2.001-0.114-4.011-0.171-6.011l1.223-18.129c34.532 16.242 36.674 14.839 46.677-25.42 4.343-17.465 5.897-35.138 5.196-52.869-1.697-43.217 18.356-75.055 50.631-101.063 6.827-5.499 12.316-11.397 20.385-0.607 22.101 29.525 53.751 30.094 86.348 26.804 33.223 5.537 61.98-3.546 85.134-27.819 7.803-8.183 12.44-4.542 18.612 0.806 29.345 25.391 51.949 53.95 50.982 95.81-0.503 21.551 0.74 43.188 7.045 64.209 10.43 34.778 12.582 36.020 46.052 20.158 0 10.989-0.759 20.783 0.228 30.388 0.872 8.429-6.305 20.973 12.563 21.523 9.263 0.275 4.077 12.62 4.087 19.228 0.057 26.7 7.718 50.11 27.771 68.333 27.345 24.832 55.049 16.356 65.707-19.077 4.731-15.73 2.143-31.716 3.963-47.625 24.121 18.679 44.354 64.711 60.454 138.344 21.94-8.277 27.515-31.213 44.629-49.854 13.502 61.999 14.876 119.789 4.058 179.579 20.518-3.812 31.023-19.684 46.071-28.236 4.76 24.889 0.777 45.103-14.194 88.405-6.125 17.73-14.545 34.399-23.941 52.641 4.096-4.684 7.917-9.595 11.444-14.535 15.237-21.333 27.961-44.478 39.301-68.257 11.017-23.097 23.4-47.531 28.824-72.827 5.395-25.202 4.817-52.376 15.863-75.994 5.812-12.43-11.691-23.391-18.015-10.942-2.475 4.864-6.078 9.14-10.24 12.781-1.47-26.719-3.461-53.201-7.177-79.834-4.864-34.807-4.798-69.3-7.32-104.258-0.901-12.544-16.204-14.289-20.489-2.882-3.432 9.131-7.576 17.967-12.724 26.207-2.513 4.020-5.272 7.822-8.429 11.33-0.645 0.721-2.626 2.219-3.679 3.413-0.569-1.489-1.223-3.148-1.47-3.887-1.015-3.006-1.764-6.125-2.598-9.188-2.617-9.652-5.784-19.124-8.363-28.795-5.537-20.755-10.875-41.33-14.829-62.483-3.717-19.883-7.813-39.528-16.469-57.809-2.75-5.803-12.335-7.471-16.384-2.19-11.283 14.715-27.297 40.732-47.853 39.68-0.977-0.047-1.868 0.028-2.702 0.199-19.209-9.225-39.983-3.556-61.042-1.887-27.487 2.181-59.022 1.413-77.132-22.168-1.233-4.418-2.513-8.808-3.812-13.151-6.808-22.756-15.55-45.189-26.434-66.181-7.889-15.208-16.877-30.104-27.724-43.245-3.622-4.399-7.974-9.026-12.838-12.715-1.327-2.456-2.759-4.855-4.399-7.168-0.341-0.474-0.721-0.929-1.109-1.365-25.799-41.927-70.305-75.255-114.1-92.397-1.1-0.427-2.133-0.654-3.119-0.711 0.009-10.259 0.019-20.527 0.019-30.786 46.336 10.487 69.063 51.892 102.334 81.967-3.347-12.639-6.694-25.268-10.923-41.235 30.511 17.882 49.607 41.292 59.411 72.59 11.71 37.404 23.704 74.667 39.234 110.592-2.807 1.783-8.249 4.267-8.012 5.224 2.2 8.856 9.605 5.167 15.218 5.907 2.92 3.84 5.831 7.68 8.751 11.511-0.91 14.857 7.045 18.185 19.257 15.976 40.495 17.759 74.714-0.047 110.156-28.89-1.337 15.891-8.713 22.898-2.266 32.465 24.889-16.678 40.078-41.481 52.395-71.206 38.789 54.025 51.665 115.759 65.024 183.467 12.459-23.419 21.855-41.064 33.735-63.403 23.817 74.373 30.502 145.759 25.903 221.468 16.612-5.935 21.239-22.111 37.48-31.697-3.641 95.535-16.299 184.396-76.516 258.816zM809.216 412.824c-6.144-34.807-9.064-69.708-5.547-110.744-34.446 35.015-47.796 72.012-48.801 114.394-0.484 20.366 13.758 19.627 26.889 18.47 13.435-1.185 31.27-0.521 27.458-22.12zM847.237 163.347c-10.78-4.532-23.429-10.543-29.345 7.462-11.122 33.858-11.454 66.977 6.741 102.229 9.861-30.872 19.475-58.908 34.465-84.546 8.676-14.81-1.46-20.774-11.861-25.145zM852.575 400.612c-6.637 44.212-6.647 44.279 30.729 47.891 12.971 1.252 26.008 3.186 38.779-1.479 7.367 0.749 14.763 2.37 22.092 2.105 38.258-1.384 39.405-2.92 36.134-49.911-14.061 27.629-38.675 20.233-57.979 27.686-10.837 0.73-20.053-5.537-32.702-2.503-14.061 3.385-27.231-9.15-37.054-23.789zM944.194 179.172c-9.15 0.322-18.29 0.853-27.43 1.289-9.263-0.389-18.527-0.948-27.8-1.109-8.040-0.142-18.745-2.247-15.047 11.672 2.105 7.917-0.047 24.453 17.285 13.293 8.344-5.376 18.413 9.965 25.809-2.56 9.007 10.989 22.575-2.503 33.005 5.66 1.204 0.939 6.77-11.321 6.997-18.963 0.303-9.851-6.239-9.519-12.819-9.282zM1012.632 169.709c-6.172-19.067-20.584-8.894-30.455-5.935-12.013 3.603-17.294 12.383-9.605 26.178 13.928 24.974 25.429 51.172 32.683 84.48 19.228-37.623 18.309-70.95 7.377-104.723zM1075.826 411.657c-2.209-39.737-15.199-73.908-48.081-108.847 4.314 40.969 1.128 73.728-5.357 105.956-4.712 23.429 11.084 24.946 25.79 26.624 16.393 1.877 28.9-1.185 27.648-23.732zM1126.921 759.514c-41.586 22.291-76.26 26.842-111.199-3.176 14.763 76.753 59.458 120.339 136.514 136.050 35.631 7.263 35.631 7.263 26.235 41.7 24.567-9.804 37.708-25.458 36.779-50.517-0.844-22.936 3.262-43.814 11.463-65.071 10.098-26.178 7.14-52.565-7.149-86.035-5.679 35.366-12.459 61.857-32.142 82.906-8.562 9.15-14.545 17.057-23.675-0.322-6.485-12.345-17.749-22.737-31.592-26.681-16.668-4.75-22.196-11.273-5.234-28.852zM1088.303 841.349c-11.529-10.079-25.249-18.423-22.926-29.402 2.465-11.681 19.086-11.017 30.426-13.919 10.411-2.664 20.489-2.171 30.246 1.82 20.006 8.201 34.095 46.137 20.85 64.929-14.089 19.996-26.226-4.219-39.652-6.561-2.541-0.446-4.741-2.807-7.13-4.305 8.116-9.472 26.491-10.866 23.23-28.293-1.1-5.869-6.94-10.98-14.706-10.894-15.445 0.142-17.702 12.62-20.338 26.624zM814.459 760.576c-32.55 23.884-66.551 18.811-100.978 5.025-0.275 10.136 1.318 20.082-13.672 22.926-12.060 2.285-23.457 10.78-28.644 21.4-12.070 24.69-21.257 13.35-32.142-0.114-14.345-17.749-20.12-39.329-28.644-60.71-16.763 27.676-13.047 55.931-1.033 82.878 6.381 14.317 9.083 27.383 7.642 42.894-2.389 25.742 5.717 47.502 29.829 60.881 7.794-5.262 3.006-10.496 1.356-15.028-6.353-17.417-2.114-24.329 17.929-26.302 25.951-2.551 51.191-10.733 74.667-23.182 14.763-7.822 23.846-18.565 21.76-36.333-1.764-2.020-3.603-3.982-5.442-5.945-11.283 14.715-15.863 9.946-19.74-5.528-2.048-8.183-11.084-9.178-19.048-7.671-5.992 1.138-10.041 4.902-12.136 10.6-3.404 9.273 5.101 9.406 9.254 13.701 4.532 4.674 9.292 9.083 17.095 14.497-17.996 3.641-28.947 28.444-47.663 12.136-13.293-11.586-7.301-46.184 7.917-59.345 20.992-18.157 44.070-11.217 66.238-2.569 19.646 7.661-1.062 20.641 2.958 30.616 22.831 2.152 29.099-15.853 36.817-31.147 6.978-13.805 15.464-27.335 15.682-43.681z" />
<glyph unicode="&#xe908;" glyph-name="icon-12" horiz-adv-x="1820" d="M951.95-29.393c-2.74 0-5.499 0.645-8.021 1.944l-407.713 209.531c-5.85 3.006-9.519 9.026-9.519 15.597v634.396c0 6.040 3.11 11.662 8.23 14.867s11.539 3.546 16.972 0.91l407.713-198.059c6.040-2.939 9.88-9.064 9.88-15.777v-645.869c0-6.116-3.186-11.785-8.401-14.971-2.797-1.707-5.964-2.569-9.14-2.569zM561.778 208.384l372.632-191.507v606.17l-372.632 181.011v-595.674zM954.15-29.393c-3.157 0-6.315 0.853-9.102 2.551-5.234 3.176-8.439 8.865-8.439 14.99v645.879c0 6.694 3.802 12.8 9.813 15.749l403.333 198.059c5.433 2.664 11.871 2.342 17.010-0.853 5.139-3.205 8.268-8.827 8.268-14.886v-634.396c0-6.542-3.641-12.544-9.453-15.569l-403.333-209.531c-2.551-1.337-5.329-1.991-8.097-1.991zM971.691 623.095v-606.066l368.251 191.308v595.589l-368.251-180.831zM954.15 725.57c-2.721 0-5.442 0.635-7.936 1.896l-326.618 165.689c-8.638 4.38-12.089 14.943-7.708 23.58s14.943 12.089 23.58 7.708l318.786-161.716 327.765 161.801c8.685 4.286 19.2 0.721 23.495-7.964 4.286-8.685 0.721-19.209-7.964-23.495l-335.635-165.689c-2.456-1.214-5.111-1.811-7.765-1.811z" />
<glyph unicode="&#xe909;" glyph-name="icon-13" horiz-adv-x="1820" d="M1233.161 410.795c0-10.222-8.286-18.508-18.508-18.508s-18.508 8.286-18.508 18.508c0 10.222 8.286 18.508 18.508 18.508s18.508-8.286 18.508-18.508zM1233.161 277.504c0-10.222-8.286-18.508-18.508-18.508s-18.508 8.286-18.508 18.508c0 10.222 8.286 18.508 18.508 18.508s18.508-8.286 18.508-18.508zM1168.005 345.628c0-10.222-8.286-18.508-18.508-18.508s-18.508 8.286-18.508 18.508c0 10.222 8.286 18.508 18.508 18.508s18.508-8.286 18.508-18.508zM1292.402 345.628c0-10.222-8.286-18.508-18.508-18.508s-18.508 8.286-18.508 18.508c0 10.222 8.286 18.508 18.508 18.508s18.508-8.286 18.508-18.508zM917.722 368.583h-65.157v60.719c0 13.084-10.61 23.694-23.694 23.694s-23.694-10.61-23.694-23.694v-60.719h-56.273c-13.084 0-23.694-10.61-23.694-23.694s10.61-23.694 23.694-23.694h56.273v-68.124c0-13.084 10.61-23.694 23.694-23.694s23.694 10.61 23.694 23.694v68.124h65.157c13.084 0 23.694 10.61 23.694 23.694s-10.6 23.694-23.694 23.694zM1253.926 571.477h-205.871v102.182h-48.868v-102.182h-210.328c-95.934 0-173.985-78.052-173.985-173.985v-99.271c0-95.934 78.052-173.985 173.985-173.985h465.057c95.934 0 173.985 78.052 173.985 173.985v99.271c0.009 95.934-78.042 173.985-173.976 173.985zM1392.365 298.221c0-76.335-62.104-138.449-138.449-138.449h-465.057c-76.335 0-138.449 62.104-138.449 138.449v99.271c0 76.335 62.104 138.449 138.449 138.449h465.057c76.335 0 138.449-62.104 138.449-138.449v-99.271z" />
<glyph unicode="&#xe90a;" horiz-adv-x="1820" d="M902.713 287.441c-121.363 0-242.726 0.54-364.079-0.417-27.288-0.218-39.756 6.438-39.528 36.987 1.261 169.207 1.119 338.432 0.37 507.648-0.114 25.894 5.613 40.581 34.788 37.385 87.836-9.614 175.948-2.873 263.917-3.063 160.977-0.341 321.953 1.024 482.92 2.475 19.418 0.171 24.623-8.846 24.642-25.211 0.028-24.51-0.028-49.010-0.019-73.519 0.047-148.215-0.171-296.42 0.446-444.634 0.095-23.533-0.54-37.205-32.521-36.57-123.601 2.456-247.277 0.996-370.925 0.996-0.009-0.683-0.009-1.375-0.009-2.076zM906.458 333.881c0-0.114 0-0.228 0-0.341 108.572 0 217.145 0.55 325.708-0.427 23.827-0.218 32.91 6.656 32.749 31.573-0.929 140.098-0.787 280.206-0.265 420.305 0.104 28.207-10.705 38.694-39.68 38.571-214.803-0.939-429.615-1.005-644.418-0.057-29.231 0.133-39.528-10.439-39.415-38.552 0.578-137.766 0.607-275.541-0.028-413.307-0.133-28.473 10.78-38.628 39.642-38.286 108.563 1.289 217.145 0.521 325.708 0.521z" />
<glyph unicode="&#xe90b;" horiz-adv-x="1820" d="M906.012 269.113c62.853 0 125.705 0.171 188.558-0.142 13.445-0.066 30.464 2.645 29.961-18.944-0.474-20.565-16.621-19.134-30.549-19.134-124.539-0.028-249.079-0.028-373.627 0.37-14.383 0.047-33.858-3.356-33.64 19.541 0.237 23.979 20.594 17.455 34.238 17.598 61.687 0.607 123.373 0.265 185.060 0.265 0 0.152 0 0.294 0 0.446z" />
<glyph unicode="&#xe90c;" horiz-adv-x="1820" d="M906.458 333.881c-108.572 0-217.154 0.777-325.708-0.521-28.862-0.341-39.775 9.813-39.642 38.286 0.635 137.766 0.607 275.541 0.028 413.307-0.114 28.113 10.183 38.684 39.415 38.552 214.803-0.948 429.615-0.872 644.418 0.057 28.975 0.123 39.784-10.354 39.68-38.571-0.521-140.098-0.664-280.206 0.265-420.305 0.161-24.927-8.922-31.791-32.749-31.573-108.563 0.977-217.135 0.427-325.708 0.427 0 0.114 0 0.228 0 0.341z" />
<glyph unicode="&#xe90d;" glyph-name="icon-15" horiz-adv-x="1820" d="M1094.808 375.22c-51.333 0-96.692-25.458-124.236-64.417l-150.556 88.69c4.542 14.431 6.997 29.781 6.997 45.701 0 15.663-2.37 30.767-6.77 44.99l151.675 93.118c27.667-37.888 72.391-62.521 122.899-62.521 83.996 0 152.092 68.096 152.092 152.092s-68.096 152.092-152.092 152.092-152.092-68.096-152.092-152.092c0-17.076 2.854-33.47 8.040-48.792l-150.68-92.501c-27.449 39.689-73.254 65.716-125.165 65.716-83.996 0-152.092-68.096-152.092-152.092s68.096-152.092 152.092-152.092c51.674 0 97.289 25.79 124.776 65.176l150.319-88.548c-4.722-14.687-7.301-30.341-7.301-46.601 0-83.996 68.096-152.092 152.092-152.092s152.092 68.096 152.092 152.092-68.087 152.083-152.092 152.083z" />
<glyph unicode="&#xe90e;" glyph-name="icon-16" horiz-adv-x="1820" d="M381.857-20.945v104.41c0 0 105.832 422.988 212.916 420.305 107.084-2.674 140.544-334.639 203.454-334.639s77.634 203.463 151.258 203.463 210.157-357.395 283.771-357.395h46.848v-37.48l-898.247 1.337zM1216.853 637.468c0-73.829-59.85-133.679-133.679-133.679s-133.679 59.85-133.679 133.679c0 73.829 59.85 133.679 133.679 133.679s133.679-59.85 133.679-133.679z" />
<glyph unicode="&#xe90f;" glyph-name="icon-17" horiz-adv-x="1820" d="M1216.749 497.076h-24.652v-413.336h-685.284v413.336h-24.652v-437.988h734.587v2.295zM1116.653 542.587h90.51l-356.058 269.729-356.058-269.729h116.11l239.948-201.453z" />
<glyph unicode="&#xe910;" glyph-name="icon-18" horiz-adv-x="1820" d="M788.414-24.955c-9.567 0.142-13.976 6.921-18.764 12.25-29.212 32.521-58.529 64.958-86.993 98.124-75.966 88.51-162.579 166.362-247.23 246.101-20.091 18.925-17.702 30.824 1.745 45.701 44.288 33.906 91.288 64.199 132.371 102.457 13.065 12.174 28.046 12.857 43.349-4.219 40.979-45.72 84.044-89.591 126.872-133.623 22.917-23.561 29.108-19.75 48.327 5.973 19.977 26.728 36.343 55.874 58.406 81.408 21.409 24.775 38.447 53.371 58.842 79.417 32.578 41.586 61.601 85.94 92.738 128.673 44.772 61.431 91.127 121.752 134.647 184.045 15.398 22.044 34.332 41.292 48.081 64.275 7.092 11.852 14.526 12.686 25.154 6.447 66.655-39.13 134.836-74.923 208.716-98.958 17.929-5.831 19.096-16.393 6.561-31.63-34.285-41.7-73.681-78.308-113.256-114.555-43.956-40.258-79.872-87.865-123.553-128.531-105.131-97.868-188.046-214.234-272.517-329.728-43.236-59.117-66.133-127.45-104.021-188.378-5.841-9.396-8.713-20.651-19.475-25.249z" />
<glyph unicode="&#xe911;" glyph-name="icon-19" horiz-adv-x="1820" d="M1256.097 692.793c-0.028-33.906-10.174-63.241-34.465-88.301-47.161-48.64-91.676-99.925-140.023-147.333-25.875-25.372-23.391-42.325 0.844-66.598 49.768-49.854 98.456-100.997 144.64-154.159 59.904-68.94 25.107-175.701-60.947-191.772-39.31-7.339-71.452 6.353-98.323 35.48-45.938 49.797-93.345 98.266-138.487 148.755-21.542 24.092-37.016 28.738-60.814 1.318-43.501-50.1-90.434-97.233-136.088-145.465-48.014-50.735-108.326-56.766-155.022-15.72-47.17 41.453-51.816 119.789-7.689 168.818 45.321 50.356 91.392 100.229 139.975 147.39 28.008 27.183 32.493 46.042 1.83 75.406-49.835 47.739-96.37 99.081-142.298 150.689-56.69 63.697-30.161 165.784 47.919 189.563 43.748 13.321 80.024-0.294 110.421-32.389 48.46-51.172 97.365-101.954 144.555-154.283 19.257-21.352 32.303-21.532 51.759 0.152 47.047 52.442 96.559 102.665 144.545 154.264 33.261 35.764 72.657 45.729 118.12 29.193 42.43-15.417 69.063-56.709 69.547-105.007z" />
<glyph unicode="&#xe912;" glyph-name="icon-20" horiz-adv-x="1820" d="M1362.423 472.614c-2.721 2.664-5.641 5.006-8.704 7.054l-369.275 361.491c-23.713 23.211-61.753 22.812-84.964-0.91-23.211-23.713-22.803-61.753 0.91-84.964l271.237-265.519h-502.86c-33.185 0-60.084-26.899-60.084-60.084s26.899-60.084 60.084-60.084h508.729l-268.582-274.375c-23.211-23.713-22.803-61.753 0.91-84.964 11.691-11.444 26.861-17.152 42.022-17.152 15.588 0 31.175 6.030 42.942 18.053l368.536 376.481c23.22 23.713 22.812 61.753-0.901 84.973z" />
<glyph unicode="&#xe913;" glyph-name="rrss" horiz-adv-x="1820" d="M845.739 303.113c0 55.988 0.009 111.976 0 167.964 0 27.345-0.009 27.373-28.16 27.477-19.010 0.076-38.040 0.417-57.041-0.076-11.52-0.303-15.9 4.124-15.777 15.806 0.313 31.147 0.133 62.312-0.759 93.449-0.37 12.734 4.456 16.583 16.678 16.071 19.513-0.825 39.083-0.294 58.624-0.284 26.321 0 25.828 0.028 26.396 25.666 0.645 29.449-2.645 58.937 4.58 88.282 17.247 70.021 73.292 114.792 145.617 114.868 32.749 0.038 65.517-0.683 98.238 0.294 15.654 0.465 20.376-5.945 20.3-20.404-0.171-31.147 0.303-62.303 1.081-93.44 0.275-10.904-3.631-15.379-14.725-14.829-13.17 0.654-26.406 0.275-39.604 0.218-30.075-0.142-49.825-15.521-57.097-44.639-3.764-15.095-1.963-30.492-1.308-45.729 0.446-10.174 8.827-10.306 16.479-10.306 26.937 0.028 53.893-0.389 80.811 0.351 11.767 0.322 15.17-3.091 14.839-15.275-0.863-31.128-0.256-62.312 0.54-93.449 0.322-12.354-4.162-17.048-16.526-16.754-24.813 0.588-49.683-0.588-74.458 0.531-15.161 0.683-21.267-5.537-21.485-19.74-0.114-7.386-0.578-14.772-0.588-22.168-0.095-110.393-0.417-220.786 0.123-331.179 0.076-15.625-5.385-19.996-20.139-19.731-40.135 0.721-80.289 0.654-120.424 0.076-12.345-0.18-16.555 3.736-16.45 16.308 0.531 60.207 0.237 120.434 0.237 180.641z" />
<glyph unicode="&#xe914;" glyph-name="home" d="M1024 369.556l-512 397.426-512-397.428v162.038l512 397.426 512-397.428zM896 384v-384h-256v256h-256v-256h-256v384l384 288z" />
<glyph unicode="&#xe915;" glyph-name="pencil" d="M864 960c88.364 0 160-71.634 160-160 0-36.020-11.91-69.258-32-96l-64-64-224 224 64 64c26.742 20.090 59.978 32 96 32zM64 224l-64-288 288 64 592 592-224 224-592-592zM715.578 596.422l-448-448-55.156 55.156 448 448 55.156-55.156z" />
<glyph unicode="&#xe916;" glyph-name="pencil2" d="M384 320l128 64 448 448-64 64-448-448-64-128zM289.3 92.902c-31.632 66.728-65.666 100.762-132.396 132.394l99.096 272.792 128 77.912 384 384h-192l-384-384-192-640 640 192 384 384v192l-384-384-77.912-128z" />
<glyph unicode="&#xe917;" glyph-name="quill" d="M0-64c128 384 463 1024 1024 1024-263-211-384-704-576-704s-192 0-192 0l-192-320h-64z" />
<glyph unicode="&#xe918;" glyph-name="pen" d="M1018.17 668.11l-286.058 286.058c-9.334 9.334-21.644 7.234-27.356-4.666l-38.354-79.904 267.198-267.198 79.904 38.354c11.9 5.712 14 18.022 4.666 27.356zM615.384 824.616l-263.384-21.95c-17.5-2.166-32.080-5.898-37.090-28.752-0.006-0.024-0.012-0.042-0.018-0.066-71.422-343.070-314.892-677.848-314.892-677.848l57.374-57.374 271.986 271.99c-5.996 12.53-9.36 26.564-9.36 41.384 0 53.020 42.98 96 96 96s96-42.98 96-96-42.98-96-96-96c-14.82 0-28.852 3.364-41.384 9.36l-271.988-271.986 57.372-57.374c0 0 334.778 243.47 677.848 314.892 0.024 0.006 0.042 0.012 0.066 0.018 22.854 5.010 26.586 19.59 28.752 37.090l21.95 263.384-273.232 273.232z" />
<glyph unicode="&#xe919;" glyph-name="play" d="M981.188 799.892c-143.632 20.65-302.332 32.108-469.186 32.108-166.86 0-325.556-11.458-469.194-32.108-27.53-107.726-42.808-226.75-42.808-351.892 0-125.14 15.278-244.166 42.808-351.89 143.638-20.652 302.336-32.11 469.194-32.11 166.854 0 325.552 11.458 469.186 32.11 27.532 107.724 42.812 226.75 42.812 351.89 0 125.142-15.28 244.166-42.812 351.892zM384.002 256v384l320-192-320-192z" />
<glyph unicode="&#xe91a;" glyph-name="pacman" d="M964.73 781.196c-93.902 109.45-233.21 178.804-388.73 178.804-282.77 0-512-229.23-512-512s229.23-512 512-512c155.52 0 294.828 69.356 388.728 178.804l-324.728 333.196 324.73 333.196zM704 839.398c39.432 0 71.398-31.964 71.398-71.398 0-39.432-31.966-71.398-71.398-71.398s-71.398 31.966-71.398 71.398c0 39.432 31.966 71.398 71.398 71.398z" />
<glyph unicode="&#xe91b;" glyph-name="connection" horiz-adv-x="1280" d="M640 384c105.87 0 201.87-43.066 271.402-112.598l-90.468-90.468c-46.354 46.356-110.356 75.066-180.934 75.066s-134.578-28.71-180.934-75.066l-90.468 90.468c69.532 69.532 165.532 112.598 271.402 112.598zM187.452 452.548c120.88 120.88 281.598 187.452 452.548 187.452s331.668-66.572 452.55-187.452l-90.51-90.508c-96.706 96.704-225.28 149.96-362.040 149.96-136.762 0-265.334-53.256-362.038-149.962l-90.51 90.51zM988.784 825.562c106.702-45.132 202.516-109.728 284.782-191.996v0l-90.508-90.508c-145.056 145.056-337.92 224.942-543.058 224.942-205.14 0-398-79.886-543.058-224.942l-90.51 90.51c82.268 82.266 178.082 146.862 284.784 191.994 110.504 46.738 227.852 70.438 348.784 70.438s238.278-23.7 348.784-70.438zM576 64c0 35.346 28.654 64 64 64s64-28.654 64-64c0-35.346-28.654-64-64-64s-64 28.654-64 64z" />
<glyph unicode="&#xe921;" glyph-name="library" horiz-adv-x="1088" d="M1024 0v64h-64v384h64v64h-192v-64h64v-384h-192v384h64v64h-192v-64h64v-384h-192v384h64v64h-192v-64h64v-384h-192v384h64v64h-192v-64h64v-384h-64v-64h-64v-64h1088v64h-64zM512 960h64l512-320v-64h-1088v64l512 320z" />
<glyph unicode="&#xe922;" glyph-name="file-text" d="M864 960h-768c-52.8 0-96-43.2-96-96v-832c0-52.8 43.2-96 96-96h768c52.8 0 96 43.2 96 96v832c0 52.8-43.2 96-96 96zM832 64h-704v768h704v-768zM256 512h448v-64h-448zM256 384h448v-64h-448zM256 256h448v-64h-448zM256 640h448v-64h-448z" />
<glyph unicode="&#xe93a;" glyph-name="cart" d="M384 32c0-53.019-42.981-96-96-96s-96 42.981-96 96c0 53.019 42.981 96 96 96s96-42.981 96-96zM1024 32c0-53.019-42.981-96-96-96s-96 42.981-96 96c0 53.019 42.981 96 96 96s96-42.981 96-96zM1024 448v384h-768c0 35.346-28.654 64-64 64h-192v-64h128l48.074-412.054c-29.294-23.458-48.074-59.5-48.074-99.946 0-70.696 57.308-128 128-128h768v64h-768c-35.346 0-64 28.654-64 64 0 0.218 0.014 0.436 0.016 0.656l831.984 127.344z" />
<glyph unicode="&#xe93b;" glyph-name="coin-dollar" d="M480 896c-265.096 0-480-214.904-480-480 0-265.098 214.904-480 480-480 265.098 0 480 214.902 480 480 0 265.096-214.902 480-480 480zM480 32c-212.078 0-384 171.922-384 384s171.922 384 384 384c212.078 0 384-171.922 384-384s-171.922-384-384-384zM512 448v128h128v64h-128v64h-64v-64h-128v-256h128v-128h-128v-64h128v-64h64v64h128.002l-0.002 256h-128zM448 448h-64v128h64v-128zM576.002 256h-64.002v128h64.002v-128z" />
<glyph unicode="&#xe93c;" glyph-name="coin-euro" d="M480 896c-265.096 0-480-214.904-480-480s214.904-480 480-480c265.098 0 480 214.902 480 480s-214.902 480-480 480zM480 32c-212.078 0-384 171.922-384 384s171.922 384 384 384c212.076 0 384-171.922 384-384s-171.924-384-384-384zM670.824 315.66c-15.27 8.884-34.862 3.708-43.75-11.57-17.256-29.662-49.088-48.090-83.074-48.090h-128c-41.716 0-77.286 26.754-90.496 64h154.496c17.672 0 32 14.326 32 32s-14.328 32-32 32h-160v64h160c17.672 0 32 14.328 32 32s-14.328 32-32 32h-154.496c13.21 37.246 48.78 64 90.496 64h128c33.986 0 65.818-18.426 83.074-48.090 8.888-15.276 28.478-20.456 43.752-11.568 15.276 8.888 20.456 28.476 11.568 43.752-28.672 49.288-81.702 79.906-138.394 79.906h-128c-77.268 0-141.914-55.056-156.78-128h-35.22c-17.672 0-32-14.328-32-32s14.328-32 32-32h32v-64h-32c-17.672 0-32-14.326-32-32s14.328-32 32-32h35.22c14.866-72.944 79.512-128 156.78-128h128c56.692 0 109.72 30.62 138.394 79.91 8.888 15.276 3.708 34.864-11.57 43.75z" />
<glyph unicode="&#xe93f;" glyph-name="credit-card" d="M928 832h-832c-52.8 0-96-43.2-96-96v-576c0-52.8 43.2-96 96-96h832c52.8 0 96 43.2 96 96v576c0 52.8-43.2 96-96 96zM96 768h832c17.346 0 32-14.654 32-32v-96h-896v96c0 17.346 14.654 32 32 32zM928 128h-832c-17.346 0-32 14.654-32 32v288h896v-288c0-17.346-14.654-32-32-32zM128 320h64v-128h-64zM256 320h64v-128h-64zM384 320h64v-128h-64z" />
<glyph unicode="&#xe942;" glyph-name="phone" d="M704 320c-64-64-64-128-128-128s-128 64-192 128-128 128-128 192 64 64 128 128-128 256-192 256-192-192-192-192c0-128 131.5-387.5 256-512s384-256 512-256c0 0 192 128 192 192s-192 256-256 192z" />
<glyph unicode="&#xe94f;" glyph-name="clock2" d="M512 960c-282.77 0-512-229.23-512-512s229.23-512 512-512 512 229.23 512 512-229.23 512-512 512zM658.744 210.744l-210.744 210.746v282.51h128v-229.49l173.256-173.254-90.512-90.512z" />
<glyph unicode="&#xe950;" glyph-name="alarm" d="M512 832c-247.424 0-448-200.576-448-448s200.576-448 448-448 448 200.576 448 448-200.576 448-448 448zM512 24c-198.824 0-360 161.178-360 360 0 198.824 161.176 360 360 360 198.822 0 360-161.176 360-360 0-198.822-161.178-360-360-360zM934.784 672.826c16.042 28.052 25.216 60.542 25.216 95.174 0 106.040-85.96 192-192 192-61.818 0-116.802-29.222-151.92-74.596 131.884-27.236 245.206-105.198 318.704-212.578v0zM407.92 885.404c-35.116 45.374-90.102 74.596-151.92 74.596-106.040 0-192-85.96-192-192 0-34.632 9.174-67.122 25.216-95.174 73.5 107.38 186.822 185.342 318.704 212.578zM512 384v256h-64v-320h256v64z" />
<glyph unicode="&#xe958;" glyph-name="mobile" d="M736 960h-448c-52.8 0-96-43.2-96-96v-832c0-52.8 43.2-96 96-96h448c52.8 0 96 43.2 96 96v832c0 52.8-43.2 96-96 96zM384 912h256v-32h-256v32zM512 0c-35.346 0-64 28.654-64 64s28.654 64 64 64 64-28.654 64-64-28.654-64-64-64zM768 192h-512v640h512v-640z" />
<glyph unicode="&#xe960;" glyph-name="download" d="M512 384l256 256h-192v256h-128v-256h-192zM744.726 488.728l-71.74-71.742 260.080-96.986-421.066-157.018-421.066 157.018 260.080 96.986-71.742 71.742-279.272-104.728v-256l512-192 512 192v256z" />
<glyph unicode="&#xe961;" glyph-name="upload" d="M448 384h128v256h192l-256 256-256-256h192zM640 528v-98.712l293.066-109.288-421.066-157.018-421.066 157.018 293.066 109.288v98.712l-384-144v-256l512-192 512 192v256z" />
<glyph unicode="&#xe971;" glyph-name="user" d="M576 253.388v52.78c70.498 39.728 128 138.772 128 237.832 0 159.058 0 288-192 288s-192-128.942-192-288c0-99.060 57.502-198.104 128-237.832v-52.78c-217.102-17.748-384-124.42-384-253.388h896c0 128.968-166.898 235.64-384 253.388z" />
<glyph unicode="&#xe972;" glyph-name="users" horiz-adv-x="1152" d="M768 189.388v52.78c70.498 39.728 128 138.772 128 237.832 0 159.058 0 288-192 288s-192-128.942-192-288c0-99.060 57.502-198.104 128-237.832v-52.78c-217.102-17.748-384-124.42-384-253.388h896c0 128.968-166.898 235.64-384 253.388zM327.196 164.672c55.31 36.15 124.080 63.636 199.788 80.414-15.054 17.784-28.708 37.622-40.492 59.020-30.414 55.234-46.492 116.058-46.492 175.894 0 86.042 0 167.31 30.6 233.762 29.706 64.504 83.128 104.496 159.222 119.488-16.914 76.48-61.94 126.75-181.822 126.75-192 0-192-128.942-192-288 0-99.060 57.502-198.104 128-237.832v-52.78c-217.102-17.748-384-124.42-384-253.388h279.006c14.518 12.91 30.596 25.172 48.19 36.672z" />
<glyph unicode="&#xe973;" glyph-name="user-plus" d="M384 224c0 151.234 95.874 280.486 230.032 330.2 16.28 36.538 25.968 77.164 25.968 117.8 0 159.058 0 288-192 288s-192-128.942-192-288c0-99.060 57.502-198.104 128-237.832v-52.78c-217.102-17.748-384-124.42-384-253.388h397.306c-8.664 30.53-13.306 62.732-13.306 96zM736 512c-159.058 0-288-128.942-288-288s128.942-288 288-288c159.056 0 288 128.942 288 288s-128.942 288-288 288zM896 192h-128v-128h-64v128h-128v64h128v128h64v-128h128v-64z" />
<glyph unicode="&#xe974;" glyph-name="user-minus" d="M384 224c0 151.234 95.874 280.486 230.032 330.2 16.28 36.538 25.968 77.164 25.968 117.8 0 159.058 0 288-192 288s-192-128.942-192-288c0-99.060 57.502-198.104 128-237.832v-52.78c-217.102-17.748-384-124.42-384-253.388h397.306c-8.664 30.53-13.306 62.732-13.306 96zM736 512c-159.058 0-288-128.942-288-288s128.942-288 288-288c159.056 0 288 128.942 288 288s-128.942 288-288 288zM896 192h-320v64h320v-64z" />
<glyph unicode="&#xe975;" glyph-name="user-check" d="M960 352l-288-288-96 96-64-64 160-160 352 352zM448 192h320v115.128c-67.22 39.2-156.308 66.11-256 74.26v52.78c70.498 39.728 128 138.772 128 237.832 0 159.058 0 288-192 288s-192-128.942-192-288c0-99.060 57.502-198.104 128-237.832v-52.78c-217.102-17.748-384-124.42-384-253.388h448v64z" />
<glyph unicode="&#xe976;" glyph-name="user-tie" d="M320 768c0 106.039 85.961 192 192 192s192-85.961 192-192c0-106.039-85.961-192-192-192s-192 85.961-192 192zM768.078 512h-35.424l-199.104-404.244 74.45 372.244-96 96-96-96 74.45-372.244-199.102 404.244h-35.424c-127.924 0-127.924-85.986-127.924-192v-320h768v320c0 106.014 0 192-127.922 192z" />
<glyph unicode="&#xe97f;" glyph-name="spinner6" d="M384 832c0 70.692 57.308 128 128 128s128-57.308 128-128c0-70.692-57.308-128-128-128s-128 57.308-128 128zM790.994 448c0 0 0 0 0 0 0 57.993 47.013 105.006 105.006 105.006s105.006-47.013 105.006-105.006c0 0 0 0 0 0 0-57.993-47.013-105.006-105.006-105.006s-105.006 47.013-105.006 105.006zM688.424 176.47c0 52.526 42.58 95.106 95.106 95.106s95.106-42.58 95.106-95.106c0-52.526-42.58-95.106-95.106-95.106s-95.106 42.58-95.106 95.106zM425.862 64c0 47.573 38.565 86.138 86.138 86.138s86.138-38.565 86.138-86.138c0-47.573-38.565-86.138-86.138-86.138s-86.138 38.565-86.138 86.138zM162.454 176.47c0 43.088 34.93 78.018 78.018 78.018s78.018-34.93 78.018-78.018c0-43.088-34.93-78.018-78.018-78.018s-78.018 34.93-78.018 78.018zM57.338 448c0 39.026 31.636 70.662 70.662 70.662s70.662-31.636 70.662-70.662c0-39.026-31.636-70.662-70.662-70.662s-70.662 31.636-70.662 70.662zM176.472 719.528c0 0 0 0 0 0 0 35.346 28.654 64 64 64s64-28.654 64-64c0 0 0 0 0 0 0-35.346-28.654-64-64-64s-64 28.654-64 64zM899.464 719.528c0-64.024-51.906-115.934-115.936-115.934-64.024 0-115.936 51.91-115.936 115.934 0 64.032 51.912 115.934 115.936 115.934 64.030 0 115.936-51.902 115.936-115.934z" />
<glyph unicode="&#xe980;" glyph-name="spinner7" d="M416 32c0 53.019 42.981 96 96 96s96-42.981 96-96c0-53.019-42.981-96-96-96s-96 42.981-96 96zM0 448c0 53.019 42.981 96 96 96s96-42.981 96-96c0-53.019-42.981-96-96-96s-96 42.981-96 96zM832 448c0 53.019 42.981 96 96 96s96-42.981 96-96c0-53.019-42.981-96-96-96s-96 42.981-96 96zM121.844 742.156c0 53.019 42.981 96 96 96s96-42.981 96-96c0-53.019-42.981-96-96-96s-96 42.981-96 96zM710.156 153.844c0 53.019 42.981 96 96 96s96-42.981 96-96c0-53.019-42.981-96-96-96s-96 42.981-96 96zM121.844 153.844c0 53.019 42.981 96 96 96s96-42.981 96-96c0-53.019-42.981-96-96-96s-96 42.981-96 96zM710.156 742.156c0 53.019 42.981 96 96 96s96-42.981 96-96c0-53.019-42.981-96-96-96s-96 42.981-96 96z" />
<glyph unicode="&#xe987;" glyph-name="zoom-in" d="M992.262 88.604l-242.552 206.294c-25.074 22.566-51.89 32.926-73.552 31.926 57.256 67.068 91.842 154.078 91.842 249.176 0 212.078-171.922 384-384 384-212.076 0-384-171.922-384-384s171.922-384 384-384c95.098 0 182.108 34.586 249.176 91.844-1-21.662 9.36-48.478 31.926-73.552l206.294-242.552c35.322-39.246 93.022-42.554 128.22-7.356s31.892 92.898-7.354 128.22zM384 320c-141.384 0-256 114.616-256 256s114.616 256 256 256 256-114.616 256-256-114.614-256-256-256zM448 768h-128v-128h-128v-128h128v-128h128v128h128v128h-128z" />
<glyph unicode="&#xe988;" glyph-name="zoom-out" d="M992.262 88.604l-242.552 206.294c-25.074 22.566-51.89 32.926-73.552 31.926 57.256 67.068 91.842 154.078 91.842 249.176 0 212.078-171.922 384-384 384-212.076 0-384-171.922-384-384s171.922-384 384-384c95.098 0 182.108 34.586 249.176 91.844-1-21.662 9.36-48.478 31.926-73.552l206.294-242.552c35.322-39.246 93.022-42.554 128.22-7.356s31.892 92.898-7.354 128.22zM384 320c-141.384 0-256 114.616-256 256s114.616 256 256 256 256-114.616 256-256-114.614-256-256-256zM192 640h384v-128h-384z" />
<glyph unicode="&#xe98f;" glyph-name="lock" d="M592 512h-16v192c0 105.87-86.13 192-192 192h-128c-105.87 0-192-86.13-192-192v-192h-16c-26.4 0-48-21.6-48-48v-480c0-26.4 21.6-48 48-48h544c26.4 0 48 21.6 48 48v480c0 26.4-21.6 48-48 48zM192 704c0 35.29 28.71 64 64 64h128c35.29 0 64-28.71 64-64v-192h-256v192z" />
<glyph unicode="&#xe990;" glyph-name="unlocked" d="M768 896c105.87 0 192-86.13 192-192v-192h-128v192c0 35.29-28.71 64-64 64h-128c-35.29 0-64-28.71-64-64v-192h16c26.4 0 48-21.6 48-48v-480c0-26.4-21.6-48-48-48h-544c-26.4 0-48 21.6-48 48v480c0 26.4 21.6 48 48 48h400v192c0 105.87 86.13 192 192 192h128z" />
<glyph unicode="&#xe998;" glyph-name="aid-kit" d="M896 704h-192v128c0 35.2-28.8 64-64 64h-256c-35.2 0-64-28.8-64-64v-128h-192c-70.4 0-128-57.6-128-128v-512c0-70.4 57.6-128 128-128h768c70.4 0 128 57.6 128 128v512c0 70.4-57.6 128-128 128zM384 832h256v-128h-256v128zM768 256h-192v-192h-128v192h-192v128h192v192h128v-192h192v-128z" />
</font>
</defs>
</svg>
