<?xml version="1.0" encoding="utf-8"?>
<!-- Generator: Adobe Illustrator 26.5.0, SVG Export Plug-In . SVG Version: 6.00 Build 0)  -->
<svg version="1.1" id="Layer_1" xmlns="http://www.w3.org/2000/svg" xmlns:xlink="http://www.w3.org/1999/xlink" x="0px" y="0px"
	 viewBox="0 0 1920 1080" style="enable-background:new 0 0 1920 1080;" xml:space="preserve">
<path d="M595.77,533.63c-0.02-18.56,0.32-37.13-0.12-55.68c-0.39-16.42,6.08-25.1,23.43-24.81c23.75,0.39,47.52-0.2,71.27,0.19
	c11.29,0.18,24.3,0.85,23.93,16.5c-0.35,14.41-12.61,14.27-23.18,14.44c-14.84,0.24-29.69,0.22-44.54,0.25
	c-10.94,0.02-19.17,3.05-18.83,16.21c0.31,12.03,8.21,14.56,18.08,14.62c16.33,0.1,32.67-0.06,48.99,0.24
	c10.1,0.19,20.55,1.59,20.31,14.93c-0.22,12.22-9.15,15.93-19.95,16.06c-16.33,0.2-32.66,0.43-48.99,0.28
	c-12.86-0.11-19.2,5.35-18.85,18.72c0.32,12.49,7.02,16.81,18.45,17.02c16.31,0.29,32.67,0.33,48.91,1.72
	c9.61,0.82,20.54,3.36,20.3,16.14c-0.25,13.54-11.45,13.65-21.22,13.74c-25.24,0.21-50.49-0.37-75.72,0.18
	c-16.3,0.35-22.79-6.96-22.36-22.83C596.19,572.24,595.78,552.93,595.77,533.63z"/>
<path d="M795.72,453.55c16.79,1.32,22.81,13.92,29.65,25.3c15.16,25.25,16.28,25.31,34.09,2.45c6.36-8.16,12.85-16.41,20.46-23.32
	c6.73-6.11,15.79-6.12,22.33,0.3c6.71,6.58,0.36,13.26-4.11,17.17c-41.67,36.49-35.42,72.54-1.06,109.97
	c5.91,6.44,17.89,17.33,5.14,26.17c-11.62,8.05-22.55-0.49-30.13-10.87c-6.99-9.57-13.58-19.45-20.28-29.23
	c-7.99-11.67-14.42-9.92-21.48,1.39c-7.05,11.29-14.84,22.24-23.41,32.42c-7.23,8.59-18.28,13.51-27.45,5.55
	c-9.18-7.97,0.76-16.05,5.3-23.04c9.67-14.9,19.54-29.71,29.97-44.08c6.78-9.34,5.64-17.11-0.54-26.32
	c-10.31-15.36-19.93-31.24-28.94-47.41C778.72,458.25,785.14,453.75,795.72,453.55z"/>
<path d="M1078.34,545.18c0-13.34-1.09-26.78,0.28-39.98c1.65-15.93-4.79-21.47-19.96-21.06c-11.08,0.3-24.67,0.57-24.25-15.43
	c0.4-15.45,14.03-15.22,25.01-15.38c25.92-0.38,51.86-0.25,77.78,0.3c9.01,0.19,18.95,1.91,19.55,13.66
	c0.64,12.42-8.2,17.25-18.91,16.6c-20.18-1.22-25.44,8.84-24.82,27.06c0.9,26.64,0.18,53.34,0.05,80.01
	c-0.06,12.04-2.28,23.03-17.7,22.69c-13.95-0.31-16.41-10.93-16.77-21.8c-0.51-15.54-0.13-31.11-0.13-46.67
	C1078.43,545.18,1078.39,545.18,1078.34,545.18z"/>
<path d="M993.26,534.14c0,20.04,0.13,40.07-0.06,60.11c-0.08,9.21-0.89,18.6-13.19,19.41c-12.51,0.82-17.51-6.92-17.58-17.98
	c-0.27-40.81-0.22-81.63-0.05-122.44c0.05-11.08,4.92-19.09,17.2-18.53c11.98,0.55,13.47,10.02,13.59,19.31
	C993.44,494.07,993.26,514.1,993.26,534.14z"/>
</svg>
