<?xml version="1.0" encoding="utf-8"?>
<!-- Generator: Adobe Illustrator 26.5.0, SVG Export Plug-In . SVG Version: 6.00 Build 0)  -->
<svg version="1.1" id="Layer_1" xmlns="http://www.w3.org/2000/svg" xmlns:xlink="http://www.w3.org/1999/xlink" x="0px" y="0px"
	 viewBox="0 0 1920 1080" style="enable-background:new 0 0 1920 1080;" xml:space="preserve">
<style type="text/css">
	.st0{fill:#303133;}
	.st1{fill:#FFFFFF;}
</style>
<g>
	<g>
		<path class="st0" d="M1057.94,415.53H687.12c-10.43,0-18.88-8.45-18.88-18.88v-32.59c0-10.43,8.45-18.88,18.88-18.88h370.82
			c10.43,0,18.88,8.45,18.88,18.88v32.59C1076.82,407.08,1068.37,415.53,1057.94,415.53z"/>
		<path class="st0" d="M1057.94,575.18H687.12c-10.43,0-18.88-8.45-18.88-18.88v-32.59c0-10.43,8.45-18.88,18.88-18.88h370.82
			c10.43,0,18.88,8.45,18.88,18.88v32.59C1076.82,566.72,1068.37,575.18,1057.94,575.18z"/>
		<path class="st0" d="M1057.94,734.82H687.12c-10.43,0-18.88-8.45-18.88-18.88v-32.59c0-10.43,8.45-18.88,18.88-18.88h370.82
			c10.43,0,18.88,8.45,18.88,18.88v32.59C1076.82,726.37,1068.37,734.82,1057.94,734.82z"/>
	</g>
</g>
<path class="st1" d="M77.55,735.76c2.09-2.91,4.46-7.24,7.13-12.97c2.66-5.74,4.75-12.97,6.27-21.71
	c2.09-12.74,4.42-27.08,6.98-43.02c2.57-15.93,5.22-32.64,7.98-50.12c2.75-17.48,5.51-35.37,8.27-53.67
	c2.75-18.3,5.42-36.33,7.98-54.08c2.57-17.75,5.03-34.87,7.41-51.35c2.37-16.48,4.51-31.55,6.41-45.2
	c1.9-13.66,3.47-25.54,4.7-35.64c1.23-10.11,2.14-17.71,2.71-22.81h36.2l179.31,321.2l177.88-321.2h27.08l46.75,324.48
	c1.33,10.2,2.75,18.94,4.28,26.22c1.52,7.28,3.04,13.52,4.56,18.71c1.52,5.19,2.99,9.47,4.42,12.84c1.43,3.37,2.8,6.15,4.13,8.33
	v1.09h-71.84v-1.09c0.95-2,1.85-5.28,2.71-9.83c0.86-4.55,1.28-10.01,1.28-16.39c0-2.36-0.1-4.78-0.28-7.24
	c-0.19-2.46-0.48-5.14-0.86-8.06l-36.2-261.66L354.63,735.76l-19.67-2.19L165.64,429.85c-6.65,43.15-12.45,83.03-17.39,119.63
	c-2.09,15.66-4.18,31.27-6.27,46.84c-2.09,15.57-3.95,30.09-5.56,43.57c-1.62,13.48-2.9,25.36-3.85,35.64
	c-0.95,10.29-1.43,17.89-1.43,22.81c0,6.19,0.19,11.66,0.57,16.39c0.38,4.74,0.76,8.74,1.14,12.02c0.57,3.82,1.14,7.2,1.71,10.11
	H77.55V735.76z"/>
<path class="st1" d="M1150.83,345.18l293.62,299.35V452.25c0-15.47-0.19-28.99-0.57-40.56c-0.38-11.56-0.95-21.58-1.71-30.04
	c-0.76-8.47-1.67-15.52-2.71-21.17c-1.05-5.64-2.14-10.38-3.28-14.2v-1.09h50.74v1.09c-1.14,3.82-2.19,8.56-3.13,14.2
	c-0.95,5.65-1.81,12.7-2.57,21.17c-0.76,8.47-1.33,18.48-1.71,30.04c-0.38,11.57-0.57,25.09-0.57,40.56v290.07h-9.98l-293.62-299.08
	v186.82c0,15.48,0.19,29,0.57,40.56c0.38,11.57,0.95,21.54,1.71,29.91c0.76,8.38,1.61,15.39,2.57,21.03c0.95,5.65,2,10.38,3.14,14.2
	v1.09h-50.74v-1.09c1.14-3.82,2.23-8.56,3.28-14.2c1.04-5.64,1.95-12.65,2.71-21.03c0.76-8.37,1.33-18.34,1.71-29.91
	c0.38-11.56,0.57-25.08,0.57-40.56V452.25c0-15.47-0.19-28.99-0.57-40.56c-0.38-11.56-0.95-21.58-1.71-30.04
	c-0.76-8.47-1.67-15.52-2.71-21.17c-1.05-5.64-2.14-10.38-3.28-14.2v-1.09H1150.83z"/>
<path class="st1" d="M1816.3,452.25c0-15.47-0.19-28.99-0.57-40.56c-0.38-11.56-0.95-21.58-1.71-30.04
	c-0.76-8.47-1.62-15.52-2.57-21.17c-0.95-5.64-2-10.38-3.14-14.2v-1.09h50.74v1.09c-1.14,3.82-2.24,8.56-3.28,14.2
	c-1.05,5.65-1.9,12.7-2.57,21.17c-0.67,8.47-1.24,18.48-1.71,30.04c-0.48,11.57-0.71,25.09-0.71,40.56v147.49
	c0,26.04-3.9,48.26-11.69,66.64c-7.8,18.39-18.63,33.46-32.5,45.2c-13.88,11.74-30.5,20.31-49.89,25.67
	c-19.38,5.37-40.58,8.06-63.57,8.06c-23,0-44.43-2.55-64.28-7.65c-19.86-5.1-37.16-13.34-51.88-24.72
	c-14.73-11.38-26.28-26.13-34.64-44.25c-8.36-18.12-12.54-40.19-12.54-66.24V452.25c0-15.47-0.19-28.99-0.57-40.56
	c-0.38-11.56-0.95-21.58-1.71-30.04c-0.76-8.47-1.67-15.52-2.71-21.17c-1.05-5.64-2.14-10.38-3.28-14.2v-1.09h68.42v1.09
	c-1.14,3.82-2.24,8.56-3.28,14.2c-1.05,5.65-1.95,12.7-2.71,21.17c-0.76,8.47-1.33,18.48-1.71,30.04
	c-0.38,11.57-0.57,25.09-0.57,40.56v153.23c0,21.67,3.37,39.56,10.12,53.67c6.74,14.11,15.63,25.31,26.65,33.6
	c11.02,8.29,23.56,14.07,37.63,17.34c14.06,3.28,28.41,4.92,43.05,4.92c14.63,0,28.98-1.64,43.04-4.92
	c14.06-3.28,26.56-9.06,37.49-17.34c10.93-8.28,19.76-19.48,26.51-33.6c6.74-14.11,10.12-32,10.12-53.67V452.25z"/>
</svg>
